_Griffith_Gothic-Condensed_Light_WebTT.ufo
<glyph name="exclam" format="1">
  <advance width="409.6"/>
  <unicode hex="0021"/>
  <outline>
    <contour>
      <point x="205" y="158" type="qcurve" smooth="yes"/>
      <point x="243.059701493" y="158.0"/>
      <point x="291.0" y="110.059701493"/>
      <point x="291" y="72" type="qcurve" smooth="yes"/>
      <point x="291.0" y="33.1940298507"/>
      <point x="243.059701493" y="-14.0"/>
      <point x="205" y="-14" type="qcurve" smooth="yes"/>
      <point x="168.432835821" y="-14.0"/>
      <point x="119.0" y="33.1940298507"/>
      <point x="119" y="72" type="qcurve" smooth="yes"/>
      <point x="119.0" y="110.059701493"/>
      <point x="168.432835821" y="158.0"/>
    </contour>
    <contour>
      <point x="133" y="1475" type="line"/>
      <point x="279" y="1475" type="line"/>
      <point x="238" y="383" type="line"/>
      <point x="174" y="383" type="line"/>
    </contour>
  </outline>
</glyph>
<glyph name="quotedbl" format="1">
  <advance width="563.2"/>
  <unicode hex="0022"/>
  <outline>
    <contour>
      <point x="90" y="1475" type="line"/>
      <point x="219" y="1475" type="line"/>
      <point x="182" y="1055" type="line"/>
      <point x="127" y="1055" type="line"/>
    </contour>
    <contour>
      <point x="346" y="1475" type="line"/>
      <point x="473" y="1475" type="line"/>
      <point x="436" y="1055" type="line"/>
      <point x="381" y="1055" type="line"/>
    </contour>
  </outline>
</glyph>
<glyph name="numbersign" format="1">
  <advance width="985.088"/>
  <unicode hex="0023"/>
  <outline>
    <contour>
      <point x="942" y="1057" type="line"/>
      <point x="942" y="950" type="line"/>
      <point x="748" y="950" type="line"/>
      <point x="690" y="526" type="line"/>
      <point x="887" y="526" type="line"/>
      <point x="887" y="422" type="line"/>
      <point x="676" y="422" type="line"/>
      <point x="621" y="0" type="line"/>
      <point x="541" y="0" type="line"/>
      <point x="596" y="422" type="line"/>
      <point x="307" y="422" type="line"/>
      <point x="252" y="0" type="line"/>
      <point x="170" y="0" type="line"/>
      <point x="227" y="422" type="line"/>
      <point x="45" y="422" type="line"/>
      <point x="45" y="526" type="line"/>
      <point x="242" y="526" type="line"/>
      <point x="297" y="950" type="line"/>
      <point x="100" y="950" type="line"/>
      <point x="100" y="1057" type="line"/>
      <point x="311" y="1057" type="line"/>
      <point x="367" y="1475" type="line"/>
      <point x="449" y="1475" type="line"/>
      <point x="391" y="1057" type="line"/>
      <point x="680" y="1057" type="line"/>
      <point x="735" y="1475" type="line"/>
      <point x="817" y="1475" type="line"/>
      <point x="762" y="1057" type="line"/>
    </contour>
    <contour>
      <point x="610" y="526" type="line"/>
      <point x="668" y="952" type="line"/>
      <point x="377" y="952" type="line"/>
      <point x="322" y="526" type="line"/>
    </contour>
  </outline>
</glyph>
<glyph name="dollar" format="1">
  <advance width="872.448"/>
  <unicode hex="0024"/>
  <outline>
    <contour>
      <point x="477" y="811" type="line"/>
      <point x="656.104477612" y="731.895522388"/>
      <point x="817.0" y="528.492537313"/>
      <point x="817" y="377" type="qcurve" smooth="yes"/>
      <point x="817.0" y="202.373134328"/>
      <point x="619.059701493" y="8.44776119403"/>
      <point x="481" y="-2" type="qcurve"/>
      <point x="481" y="-195" type="line"/>
      <point x="401" y="-195" type="line"/>
      <point x="401" y="-2" type="line"/>
      <point x="294.28358209" y="5.46268656716"/>
      <point x="120.641791045" y="111.746268657"/>
      <point x="49" y="211" type="qcurve"/>
      <point x="127" y="285" type="line"/>
      <point x="186.701492537" y="199.179104478"/>
      <point x="323.164179104" y="103.462686567"/>
      <point x="406" y="96" type="qcurve"/>
      <point x="406" y="721" type="line"/>
      <point x="264.955223881" y="782.194029851"/>
      <point x="84.0" y="968.029850746"/>
      <point x="84" y="1124" type="qcurve" smooth="yes"/>
      <point x="84.0" y="1274.0"/>
      <point x="263.686567164" y="1467.29850746"/>
      <point x="401" y="1477" type="qcurve"/>
      <point x="401" y="1561" type="line"/>
      <point x="481" y="1561" type="line"/>
      <point x="481" y="1477" type="line"/>
      <point x="575.776119403" y="1467.29850746"/>
      <point x="725.089552239" y="1373.31343284"/>
      <point x="793" y="1286" type="qcurve"/>
      <point x="713" y="1212" type="line"/>
      <point x="656.28358209" y="1288.86567164"/>
      <point x="541.179104478" y="1370.53731343"/>
      <point x="477" y="1378" type="qcurve"/>
    </contour>
    <contour>
      <point x="199" y="1135" type="qcurve" smooth="yes"/>
      <point x="199.0" y="1032.01492537"/>
      <point x="301.52238806" y="894.0"/>
      <point x="406" y="844" type="qcurve"/>
      <point x="406" y="1382" type="line"/>
      <point x="308.985074627" y="1374.53731343"/>
      <point x="199.0" y="1238.73134328"/>
    </contour>
    <contour>
      <point x="477" y="92" type="line"/>
      <point x="580.731343284" y="102.447761194"/>
      <point x="700.0" y="244.104477612"/>
      <point x="700" y="365" type="qcurve" smooth="yes"/>
      <point x="700.0" y="473.208955224"/>
      <point x="605.358208955" y="621.820895522"/>
      <point x="477" y="686" type="qcurve"/>
    </contour>
  </outline>
</glyph>
<glyph name="ampersand" format="1">
  <advance width="1099.776"/>
  <unicode hex="0026"/>
  <outline>
    <contour>
      <point x="1100" y="100" type="qcurve"/>
      <point x="1100" y="8" type="line"/>
      <point x="1075.37313433" y="-2.44776119403"/>
      <point x="1029.59701493" y="-12.0"/>
      <point x="999" y="-12" type="qcurve" smooth="yes"/>
      <point x="925.865671642" y="-12.0"/>
      <point x="809.895522388" y="55.7313432836"/>
      <point x="739" y="152" type="qcurve"/>
      <point x="670.343283582" y="70.6567164179"/>
      <point x="512.805970149" y="-20.0"/>
      <point x="424" y="-20" type="qcurve" smooth="yes"/>
      <point x="259.074626866" y="-20.0"/>
      <point x="55.0" y="208.910447761"/>
      <point x="55" y="391" type="qcurve" smooth="yes"/>
      <point x="55.0" y="525.328358209"/>
      <point x="184.985074627" y="750.746268657"/>
      <point x="332" y="850" type="qcurve"/>
      <point x="285.731343284" y="941.791044776"/>
      <point x="229.0" y="1117.70149254"/>
      <point x="229" y="1208" type="qcurve" smooth="yes"/>
      <point x="229.0" y="1328.89552239"/>
      <point x="370.343283582" y="1499.0"/>
      <point x="489" y="1499" type="qcurve" smooth="yes"/>
      <point x="600.940298507" y="1499.0"/>
      <point x="711.0" y="1343.20895522"/>
      <point x="711" y="1235" type="qcurve" smooth="yes"/>
      <point x="711.0" y="1102.1641791"/>
      <point x="579.179104478" y="916.597014925"/>
      <point x="465" y="836" type="qcurve"/>
      <point x="556.791044776" y="661.373134328"/>
      <point x="696.776119403" y="410.089552239"/>
      <point x="752" y="328" type="qcurve"/>
      <point x="802.0" y="419.791044776"/>
      <point x="890.925373134" y="658.432835821"/>
      <point x="926" y="795" type="qcurve"/>
      <point x="1016" y="745" type="line"/>
      <point x="976.447761194" y="594.253731343"/>
      <point x="872.194029851" y="338.776119403"/>
      <point x="811" y="244" type="qcurve"/>
      <point x="878.164179104" y="144.746268657"/>
      <point x="962.746268657" y="82.0"/>
      <point x="1012" y="82" type="qcurve" smooth="yes"/>
      <point x="1042.59701493" y="82.0"/>
      <point x="1076.86567164" y="91.0447761194"/>
    </contour>
    <contour>
      <point x="434" y="76" type="qcurve" smooth="yes"/>
      <point x="504.149253731" y="76.0"/>
      <point x="628.268656716" y="155.865671642"/>
      <point x="682" y="229" type="qcurve"/>
      <point x="622.298507463" y="320.791044776"/>
      <point x="468.28358209" y="587.910447761"/>
      <point x="375" y="770" type="qcurve"/>
      <point x="264.552238806" y="689.402985075"/>
      <point x="176.0" y="512.71641791"/>
      <point x="176" y="406" type="qcurve" smooth="yes"/>
      <point x="176.0" y="275.402985075"/>
      <point x="314.597014925" y="76.0"/>
    </contour>
    <contour>
      <point x="420" y="907" type="qcurve"/>
      <point x="520.746268657" y="979.388059701"/>
      <point x="608.0" y="1133.20895522"/>
      <point x="608" y="1225" type="qcurve" smooth="yes"/>
      <point x="608.0" y="1307.08955224"/>
      <point x="543.208955224" y="1415.0"/>
      <point x="485" y="1415" type="qcurve" smooth="yes"/>
      <point x="411.865671642" y="1415.0"/>
      <point x="338.0" y="1292.35820896"/>
      <point x="338" y="1214" type="qcurve" smooth="yes"/>
      <point x="338.0" y="1139.37313433"/>
      <point x="380.447761194" y="986.850746269"/>
    </contour>
  </outline>
</glyph>
<glyph name="quotesingle" format="1">
  <advance width="309.248"/>
  <unicode hex="0027"/>
  <outline>
    <contour>
      <point x="90" y="1475" type="line"/>
      <point x="219" y="1475" type="line"/>
      <point x="184" y="1055" type="line"/>
      <point x="127" y="1055" type="line"/>
    </contour>
  </outline>
</glyph>
<glyph name="parenleft" format="1">
  <advance width="507.904"/>
  <unicode hex="0028"/>
  <outline>
    <contour>
      <point x="215" y="655" type="qcurve" smooth="yes"/>
      <point x="215.0" y="398.28358209"/>
      <point x="347.059701493" y="-18.8805970149"/>
      <point x="459" y="-195" type="qcurve"/>
      <point x="360" y="-195" type="line"/>
      <point x="256.268656716" y="-47.9850746269"/>
      <point x="92.0" y="372.164179104"/>
      <point x="92" y="655" type="qcurve" smooth="yes"/>
      <point x="92.0" y="937.835820896"/>
      <point x="256.268656716" y="1358.73134328"/>
      <point x="360" y="1505" type="qcurve"/>
      <point x="459" y="1505" type="line"/>
      <point x="347.059701493" y="1329.62686567"/>
      <point x="215.0" y="911.71641791"/>
    </contour>
  </outline>
</glyph>
<glyph name="parenright" format="1">
  <advance width="507.904"/>
  <unicode hex="0029"/>
  <outline>
    <contour>
      <point x="147" y="1505" type="line"/>
      <point x="252.970149254" y="1358.73134328"/>
      <point x="416.0" y="937.835820896"/>
      <point x="416" y="655" type="qcurve" smooth="yes"/>
      <point x="416.0" y="372.164179104"/>
      <point x="252.970149254" y="-47.9850746269"/>
      <point x="147" y="-195" type="qcurve"/>
      <point x="49" y="-195" type="line"/>
      <point x="162.432835821" y="-18.8805970149"/>
      <point x="295.0" y="398.28358209"/>
      <point x="295" y="655" type="qcurve" smooth="yes"/>
      <point x="295.0" y="911.71641791"/>
      <point x="162.432835821" y="1329.62686567"/>
      <point x="49" y="1505" type="qcurve"/>
    </contour>
  </outline>
</glyph>
<glyph name="comma" format="1">
  <advance width="319.488"/>
  <unicode hex="002C"/>
  <outline>
    <contour>
      <point x="115" y="186" type="line"/>
      <point x="246" y="186" type="line"/>
      <point x="106" y="-223" type="line"/>
      <point x="51" y="-223" type="line"/>
    </contour>
  </outline>
</glyph>
<glyph name="hyphen" format="1">
  <advance width="481.28"/>
  <unicode hex="002D"/>
  <unicode hex="2010"/>
  <unicode hex="2011"/>
  <outline>
    <contour>
      <point x="436" y="629" type="line"/>
      <point x="436" y="520" type="line"/>
      <point x="61" y="520" type="line"/>
      <point x="61" y="629" type="line"/>
    </contour>
  </outline>
</glyph>
<glyph name="slash" format="1">
  <advance width="612.352"/>
  <unicode hex="002F"/>
  <outline>
    <contour>
      <point x="481" y="1505" type="line"/>
      <point x="588" y="1505" type="line"/>
      <point x="86" y="-195" type="line"/>
      <point x="-20" y="-195" type="line"/>
    </contour>
  </outline>
</glyph>
<glyph name="two" format="1">
  <advance width="894.976"/>
  <unicode hex="0032"/>
  <outline>
    <contour>
      <point x="805" y="100" type="line"/>
      <point x="805" y="0" type="line"/>
      <point x="92" y="0" type="line"/>
      <point x="92" y="82" type="line"/>
      <point x="135.28358209" y="258.865671642"/>
      <point x="298.552238806" y="527.014925373"/>
      <point x="459" y="680" type="qcurve" smooth="yes"/>
      <point x="562.731343284" y="780.746268657"/>
      <point x="666.0" y="969.164179104"/>
      <point x="666" y="1102" type="qcurve" smooth="yes"/>
      <point x="666.0" y="1227.37313433"/>
      <point x="561.208955224" y="1399.0"/>
      <point x="453" y="1399" type="qcurve" smooth="yes"/>
      <point x="356.731343284" y="1399.0"/>
      <point x="234.776119403" y="1253.52238806"/>
      <point x="190" y="1108" type="qcurve"/>
      <point x="84" y="1147" type="line"/>
      <point x="134.746268657" y="1319.3880597"/>
      <point x="320.432835821" y="1499.0"/>
      <point x="457" y="1499" type="qcurve" smooth="yes"/>
      <point x="623.417910448" y="1499.0"/>
      <point x="791.0" y="1268.92537313"/>
      <point x="791" y="1104" type="qcurve" smooth="yes"/>
      <point x="791.0" y="932.358208955"/>
      <point x="644.895522388" y="712.417910448"/>
      <point x="524" y="596" type="qcurve" smooth="yes"/>
      <point x="394.149253731" y="472.119402985"/>
      <point x="249.597014925" y="235.074626866"/>
      <point x="219" y="100" type="qcurve"/>
    </contour>
  </outline>
</glyph>
<glyph name="three" format="1">
  <advance width="837.632"/>
  <unicode hex="0033"/>
  <outline>
    <contour>
      <point x="446" y="817" type="line"/>
      <point x="582.567164179" y="838.641791045"/>
      <point x="772.0" y="686.895522388"/>
      <point x="772" y="516" type="qcurve" smooth="yes"/>
      <point x="772.0" y="265.253731343"/>
      <point x="336.223880597" y="-14.9850746269"/>
      <point x="31" y="-12" type="qcurve"/>
      <point x="31" y="88" type="line"/>
      <point x="304.134328358" y="89.4925373134"/>
      <point x="645.0" y="316.985074627"/>
      <point x="645" y="514" type="qcurve" smooth="yes"/>
      <point x="645.0" y="630.417910448"/>
      <point x="543.029850746" y="745.0"/>
      <point x="449" y="745" type="qcurve" smooth="yes"/>
      <point x="399.746268657" y="745.0"/>
      <point x="322.074626866" y="728.940298507"/>
      <point x="287" y="717" type="qcurve"/>
      <point x="258" y="805" type="line"/>
      <point x="422.925373134" y="884.104477612"/>
      <point x="584.0" y="1055.6119403"/>
      <point x="584" y="1178" type="qcurve" smooth="yes"/>
      <point x="584.0" y="1275.76119403"/>
      <point x="491.074626866" y="1399.0"/>
      <point x="406" y="1399" type="qcurve" smooth="yes"/>
      <point x="327.641791045" y="1399.0"/>
      <point x="206.47761194" y="1303.79104478"/>
      <point x="152" y="1212" type="qcurve"/>
      <point x="76" y="1274" type="line"/>
      <point x="138.686567164" y="1374.74626866"/>
      <point x="301.582089552" y="1499.0"/>
      <point x="418" y="1499" type="qcurve" smooth="yes"/>
      <point x="555.313432836" y="1499.0"/>
      <point x="709.0" y="1333.34328358"/>
      <point x="709" y="1202" type="qcurve" smooth="yes"/>
      <point x="709.0" y="1069.1641791"/>
      <point x="563.402985075" y="889.179104478"/>
      <point x="444" y="825" type="qcurve"/>
    </contour>
  </outline>
</glyph>
<glyph name="four" format="1">
  <advance width="915.456"/>
  <unicode hex="0034"/>
  <outline>
    <contour>
      <point x="856" y="502" type="line"/>
      <point x="856" y="418" type="line"/>
      <point x="707" y="418" type="line"/>
      <point x="707" y="0" type="line"/>
      <point x="586" y="0" type="line"/>
      <point x="586" y="418" type="line"/>
      <point x="61" y="418" type="line"/>
      <point x="61" y="537" type="line"/>
      <point x="539" y="1475" type="line"/>
      <point x="707" y="1475" type="line"/>
      <point x="707" y="502" type="line"/>
    </contour>
    <contour>
      <point x="152" y="502" type="line"/>
      <point x="586" y="502" type="line"/>
      <point x="586" y="1346" type="line"/>
      <point x="569" y="1346" type="line"/>
      <point x="152" y="522" type="line"/>
    </contour>
  </outline>
</glyph>
<glyph name="six" format="1">
  <advance width="903.168"/>
  <unicode hex="0036"/>
  <outline>
    <contour>
      <point x="504" y="913" type="qcurve" smooth="yes"/>
      <point x="648.776119403" y="913.0"/>
      <point x="854.0" y="676.671641791"/>
      <point x="854" y="461" type="qcurve" smooth="yes"/>
      <point x="854.0" y="240.850746269"/>
      <point x="629.895522388" y="-25.0"/>
      <point x="459" y="-25" type="qcurve" smooth="yes"/>
      <point x="285.865671642" y="-25.0"/>
      <point x="76.0" y="246.298507463"/>
      <point x="76" y="506" type="qcurve" smooth="yes"/>
      <point x="76.0" y="774.656716418"/>
      <point x="272.880597015" y="1271.26865672"/>
      <point x="449" y="1475" type="qcurve"/>
      <point x="602" y="1475" type="line"/>
      <point x="438.567164179" y="1304.85074627"/>
      <point x="234.104477612" y="903.626865672"/>
      <point x="205" y="729" type="qcurve"/>
      <point x="217" y="729" type="line"/>
      <point x="267.746268657" y="813.328358209"/>
      <point x="400.268656716" y="913.0"/>
    </contour>
    <contour>
      <point x="463" y="72" type="qcurve" smooth="yes"/>
      <point x="585.388059701" y="72.0"/>
      <point x="727.0" y="284.343283582"/>
      <point x="727" y="453" type="qcurve" smooth="yes"/>
      <point x="727.0" y="617.925373134"/>
      <point x="595.895522388" y="817.0"/>
      <point x="475" y="817" type="qcurve" smooth="yes"/>
      <point x="352.611940299" y="817.0"/>
      <point x="203.0" y="601.746268657"/>
      <point x="203" y="451" type="qcurve" smooth="yes"/>
      <point x="203.0" y="285.328358209"/>
      <point x="342.104477612" y="72.0"/>
    </contour>
  </outline>
</glyph>
<glyph name="nine" format="1">
  <advance width="903.168"/>
  <unicode hex="0039"/>
  <outline>
    <contour>
      <point x="444" y="1499" type="qcurve" smooth="yes"/>
      <point x="617.134328358" y="1499.0"/>
      <point x="827.0" y="1228.70149254"/>
      <point x="827" y="969" type="qcurve" smooth="yes"/>
      <point x="827.0" y="699.597014925"/>
      <point x="628.880597015" y="202.985074627"/>
      <point x="455" y="0" type="qcurve"/>
      <point x="299" y="0" type="line"/>
      <point x="463.925373134" y="169.402985075"/>
      <point x="668.388059701" y="571.119402985"/>
      <point x="696" y="745" type="qcurve"/>
      <point x="686" y="745" type="line"/>
      <point x="633.76119403" y="661.417910448"/>
      <point x="501.985074627" y="561.0"/>
      <point x="399" y="561" type="qcurve" smooth="yes"/>
      <point x="254.223880597" y="561.0"/>
      <point x="49.0" y="798.328358209"/>
      <point x="49" y="1014" type="qcurve" smooth="yes"/>
      <point x="49.0" y="1234.14925373"/>
      <point x="273.104477612" y="1499.0"/>
    </contour>
    <contour>
      <point x="426" y="657" type="qcurve" smooth="yes"/>
      <point x="549.880597015" y="657.0"/>
      <point x="700.0" y="872.507462687"/>
      <point x="700" y="1024" type="qcurve" smooth="yes"/>
      <point x="700.0" y="1188.92537313"/>
      <point x="560.388059701" y="1403.0"/>
      <point x="438" y="1403" type="qcurve" smooth="yes"/>
      <point x="317.104477612" y="1403.0"/>
      <point x="176.0" y="1189.91044776"/>
      <point x="176" y="1022" type="qcurve" smooth="yes"/>
      <point x="176.0" y="857.074626866"/>
      <point x="306.597014925" y="657.0"/>
    </contour>
  </outline>
</glyph>
<glyph name="colon" format="1">
  <advance width="356.352"/>
  <unicode hex="003A"/>
  <outline>
    <contour>
      <point x="178" y="158" type="qcurve" smooth="yes"/>
      <point x="216.059701493" y="158.0"/>
      <point x="264.0" y="110.059701493"/>
      <point x="264" y="72" type="qcurve" smooth="yes"/>
      <point x="264.0" y="33.1940298507"/>
      <point x="216.059701493" y="-14.0"/>
      <point x="178" y="-14" type="qcurve" smooth="yes"/>
      <point x="139.940298507" y="-14.0"/>
      <point x="92.0" y="33.1940298507"/>
      <point x="92" y="72" type="qcurve" smooth="yes"/>
      <point x="92.0" y="110.059701493"/>
      <point x="139.940298507" y="158.0"/>
    </contour>
    <contour>
      <point x="178" y="1067" type="qcurve" smooth="yes"/>
      <point x="216.059701493" y="1067.0"/>
      <point x="264.0" y="1019.05970149"/>
      <point x="264" y="981" type="qcurve" smooth="yes"/>
      <point x="264.0" y="944.432835821"/>
      <point x="216.059701493" y="895.0"/>
      <point x="178" y="895" type="qcurve" smooth="yes"/>
      <point x="139.940298507" y="895.0"/>
      <point x="92.0" y="944.432835821"/>
      <point x="92" y="981" type="qcurve" smooth="yes"/>
      <point x="92.0" y="1019.05970149"/>
      <point x="139.940298507" y="1067.0"/>
    </contour>
  </outline>
</glyph>
<glyph name="semicolon" format="1">
  <advance width="356.352"/>
  <unicode hex="003B"/>
  <outline>
    <contour>
      <point x="180" y="1067" type="qcurve" smooth="yes"/>
      <point x="216.567164179" y="1067.0"/>
      <point x="266.0" y="1019.05970149"/>
      <point x="266" y="981" type="qcurve" smooth="yes"/>
      <point x="266.0" y="944.432835821"/>
      <point x="216.567164179" y="895.0"/>
      <point x="180" y="895" type="qcurve" smooth="yes"/>
      <point x="141.940298507" y="895.0"/>
      <point x="94.0" y="944.432835821"/>
      <point x="94" y="981" type="qcurve" smooth="yes"/>
      <point x="94.0" y="1019.05970149"/>
      <point x="141.940298507" y="1067.0"/>
    </contour>
    <contour>
      <point x="115" y="186" type="line"/>
      <point x="246" y="186" type="line"/>
      <point x="106" y="-223" type="line"/>
      <point x="51" y="-223" type="line"/>
    </contour>
  </outline>
</glyph>
<glyph name="less" format="1">
  <advance width="964.608"/>
  <unicode hex="003C"/>
  <outline>
    <contour>
      <point x="874" y="414" type="line"/>
      <point x="874" y="299" type="line"/>
      <point x="76" y="674" type="line"/>
      <point x="76" y="780" type="line"/>
      <point x="874" y="1157" type="line"/>
      <point x="874" y="1042" type="line"/>
      <point x="186" y="727" type="line"/>
    </contour>
  </outline>
</glyph>
<glyph name="at" format="1">
  <advance width="1593.344"/>
  <unicode hex="0040"/>
  <outline>
    <contour>
      <point x="827" y="1499" type="qcurve" smooth="yes"/>
      <point x="1114.31343284" y="1499.0"/>
      <point x="1509.0" y="1059.6119403"/>
      <point x="1509" y="682" type="qcurve" smooth="yes"/>
      <point x="1509.0" y="402.149253731"/>
      <point x="1281.80597015" y="63.0"/>
      <point x="1143" y="63" type="qcurve" smooth="yes"/>
      <point x="1051.20895522" y="63.0"/>
      <point x="937.462686567" y="185.567164179"/>
      <point x="930" y="299" type="qcurve"/>
      <point x="922" y="299" type="line"/>
      <point x="860.805970149" y="181.089552239"/>
      <point x="728.850746269" y="63.0"/>
      <point x="649" y="63" type="qcurve" smooth="yes"/>
      <point x="560.194029851" y="63.0"/>
      <point x="449.0" y="230.044776119"/>
      <point x="449" y="389" type="qcurve" smooth="yes"/>
      <point x="449.0" y="651.686567164"/>
      <point x="653.955223881" y="1053.0"/>
      <point x="795" y="1053" type="qcurve" smooth="yes"/>
      <point x="881.567164179" y="1053.0"/>
      <point x="972.104477612" y="910.731343284"/>
      <point x="993" y="807" type="qcurve"/>
      <point x="999" y="805" type="line"/>
      <point x="1044" y="1049" type="line"/>
      <point x="1143" y="1010" type="line"/>
      <point x="1032" y="395" type="line" smooth="yes"/>
      <point x="1012.59701493" y="285.298507463"/>
      <point x="1079.41791045" y="123.0"/>
      <point x="1163" y="123" type="qcurve" smooth="yes"/>
      <point x="1270.46268657" y="123.0"/>
      <point x="1446.0" y="437.701492537"/>
      <point x="1446" y="678" type="qcurve" smooth="yes"/>
      <point x="1446.0" y="1029.49253731"/>
      <point x="1099.86567164" y="1444.0"/>
      <point x="823" y="1444" type="qcurve" smooth="yes"/>
      <point x="535.686567164" y="1444.0"/>
      <point x="143.0" y="924.104477612"/>
      <point x="143" y="545" type="qcurve" smooth="yes"/>
      <point x="143.0" y="147.23880597"/>
      <point x="504.52238806" y="-338.0"/>
      <point x="809" y="-338" type="qcurve" smooth="yes"/>
      <point x="956.014925373" y="-338.0"/>
      <point x="1182.7761194" y="-252.358208955"/>
      <point x="1288" y="-174" type="qcurve"/>
      <point x="1319" y="-223" type="line"/>
      <point x="1205.56716418" y="-302.850746269"/>
      <point x="960.970149254" y="-393.0"/>
      <point x="805" y="-393" type="qcurve" smooth="yes"/>
      <point x="478.134328358" y="-393.0"/>
      <point x="78.0" y="114.641791045"/>
      <point x="78" y="543" type="qcurve" smooth="yes"/>
      <point x="78.0" y="957.179104478"/>
      <point x="520.28358209" y="1499.0"/>
    </contour>
    <contour>
      <point x="688" y="141" type="qcurve" smooth="yes"/>
      <point x="788.746268657" y="141.0"/>
      <point x="966.52238806" y="473.149253731"/>
      <point x="971" y="653" type="qcurve" smooth="yes"/>
      <point x="973.985074627" y="763.447761194"/>
      <point x="891.358208955" y="967.0"/>
      <point x="813" y="967" type="qcurve" smooth="yes"/>
      <point x="706.28358209" y="967.0"/>
      <point x="555.0" y="616.641791045"/>
      <point x="555" y="395" type="qcurve" smooth="yes"/>
      <point x="555.0" y="280.820895522"/>
      <point x="623.820895522" y="141.0"/>
    </contour>
  </outline>
</glyph>
<glyph name="A" format="1">
  <advance width="1075.2"/>
  <unicode hex="0041"/>
  <outline>
    <contour>
      <point x="629" y="1483" type="line"/>
      <point x="1030" y="0" type="line"/>
      <point x="899" y="0" type="line"/>
      <point x="795" y="393" type="line"/>
      <point x="272" y="393" type="line"/>
      <point x="170" y="0" type="line"/>
      <point x="43" y="0" type="line"/>
      <point x="446" y="1483" type="line"/>
    </contour>
    <contour>
      <point x="295" y="492" type="line"/>
      <point x="774" y="492" type="line"/>
      <point x="541" y="1364" type="line"/>
      <point x="528" y="1364" type="line"/>
    </contour>
  </outline>
</glyph>
<glyph name="C" format="1">
  <advance width="927.744"/>
  <unicode hex="0043"/>
  <outline>
    <contour>
      <point x="754" y="453" type="qcurve"/>
      <point x="868" y="424" type="line"/>
      <point x="831.432835821" y="219.52238806"/>
      <point x="655.149253731" y="-25.0"/>
      <point x="485" y="-25" type="qcurve" smooth="yes"/>
      <point x="299.179104478" y="-25.0"/>
      <point x="84.0" y="338.552238806"/>
      <point x="84" y="649" type="qcurve" smooth="yes"/>
      <point x="84" y="823" type="line" smooth="yes"/>
      <point x="84.0" y="1133.44776119"/>
      <point x="299.179104478" y="1499.0"/>
      <point x="485" y="1499" type="qcurve" smooth="yes"/>
      <point x="645.447761194" y="1499.0"/>
      <point x="824.925373134" y="1273.53731343"/>
      <point x="860" y="1081" type="qcurve"/>
      <point x="741" y="1044" type="line"/>
      <point x="710.402985075" y="1214.14925373"/>
      <point x="592.462686567" y="1399.0"/>
      <point x="485" y="1399" type="qcurve" smooth="yes"/>
      <point x="349.179104478" y="1399.0"/>
      <point x="213.0" y="1078.53731343"/>
      <point x="213" y="836" type="qcurve" smooth="yes"/>
      <point x="213" y="643" type="line" smooth="yes"/>
      <point x="213.0" y="398.223880597"/>
      <point x="353.179104478" y="76.0"/>
      <point x="489" y="76" type="qcurve" smooth="yes"/>
      <point x="597.955223881" y="76.0"/>
      <point x="718.925373134" y="266.432835821"/>
    </contour>
  </outline>
</glyph>
<glyph name="D" format="1">
  <advance width="985.088"/>
  <unicode hex="0044"/>
  <outline>
    <contour>
      <point x="899" y="821" type="qcurve" smooth="yes"/>
      <point x="899" y="655" type="line" smooth="yes"/>
      <point x="899.0" y="345.298507463"/>
      <point x="634.791044776" y="0.0"/>
      <point x="393" y="0" type="qcurve" smooth="yes"/>
      <point x="133" y="0" type="line"/>
      <point x="133" y="1475" type="line"/>
      <point x="401" y="1475" type="line" smooth="yes"/>
      <point x="641.298507463" y="1475.0"/>
      <point x="899.0" y="1129.95522388"/>
    </contour>
    <contour>
      <point x="399" y="98" type="line" smooth="yes"/>
      <point x="575.119402985" y="98.0"/>
      <point x="770.0" y="381.268656716"/>
      <point x="770" y="635" type="qcurve" smooth="yes"/>
      <point x="770" y="836" type="line" smooth="yes"/>
      <point x="770.0" y="1092.71641791"/>
      <point x="576.582089552" y="1376.0"/>
      <point x="393" y="1376" type="qcurve" smooth="yes"/>
      <point x="262" y="1376" type="line"/>
      <point x="262" y="98" type="line"/>
    </contour>
  </outline>
</glyph>
<glyph name="E" format="1">
  <advance width="866.304"/>
  <unicode hex="0045"/>
  <outline>
    <contour>
      <point x="811" y="102" type="line"/>
      <point x="811" y="0" type="line"/>
      <point x="133" y="0" type="line"/>
      <point x="133" y="1475" type="line"/>
      <point x="791" y="1475" type="line"/>
      <point x="791" y="1372" type="line"/>
      <point x="260" y="1372" type="line"/>
      <point x="260" y="821" type="line"/>
      <point x="698" y="821" type="line"/>
      <point x="698" y="721" type="line"/>
      <point x="260" y="721" type="line"/>
      <point x="260" y="102" type="line"/>
    </contour>
  </outline>
</glyph>
<glyph name="G" format="1">
  <advance width="993.28"/>
  <unicode hex="0047"/>
  <outline>
    <contour>
      <point x="899" y="672" type="line"/>
      <point x="899" y="0" type="line"/>
      <point x="831" y="0" type="line"/>
      <point x="823" y="432" type="line"/>
      <point x="815" y="432" type="line"/>
      <point x="779.925373134" y="221.552238806"/>
      <point x="625.985074627" y="-25.0"/>
      <point x="473" y="-25" type="qcurve" smooth="yes"/>
      <point x="296.134328358" y="-25.0"/>
      <point x="84.0" y="341.298507463"/>
      <point x="84" y="651" type="qcurve" smooth="yes"/>
      <point x="84" y="823" type="line" smooth="yes"/>
      <point x="84.0" y="1133.44776119"/>
      <point x="307.149253731" y="1499.0"/>
      <point x="487" y="1499" type="qcurve" smooth="yes"/>
      <point x="652.671641791" y="1499.0"/>
      <point x="822.447761194" y="1288.11940299"/>
      <point x="862" y="1112" type="qcurve"/>
      <point x="745" y="1073" type="line"/>
      <point x="712.910447761" y="1223.0"/>
      <point x="594.462686567" y="1399.0"/>
      <point x="487" y="1399" type="qcurve" smooth="yes"/>
      <point x="352.671641791" y="1399.0"/>
      <point x="213.0" y="1078.53731343"/>
      <point x="213" y="836" type="qcurve" smooth="yes"/>
      <point x="213" y="645" type="line" smooth="yes"/>
      <point x="213.0" y="394.253731343"/>
      <point x="355.656716418" y="76.0"/>
      <point x="487" y="76" type="qcurve" smooth="yes"/>
      <point x="613.865671642" y="76.0"/>
      <point x="737.343283582" y="348.746268657"/>
      <point x="756" y="598" type="qcurve"/>
      <point x="510" y="598" type="line"/>
      <point x="510" y="672" type="line"/>
    </contour>
  </outline>
</glyph>
<glyph name="I" format="1">
  <advance width="632.832"/>
  <unicode hex="0049"/>
  <outline>
    <contour>
      <point x="545" y="63" type="line"/>
      <point x="545" y="0" type="line"/>
      <point x="88" y="0" type="line"/>
      <point x="88" y="63" type="line"/>
      <point x="252" y="63" type="line"/>
      <point x="252" y="1411" type="line"/>
      <point x="88" y="1411" type="line"/>
      <point x="88" y="1475" type="line"/>
      <point x="545" y="1475" type="line"/>
      <point x="545" y="1411" type="line"/>
      <point x="381" y="1411" type="line"/>
      <point x="381" y="63" type="line"/>
    </contour>
  </outline>
</glyph>
<glyph name="J" format="1">
  <advance width="798.72"/>
  <unicode hex="004A"/>
  <outline>
    <contour>
      <point x="670" y="1475" type="line"/>
      <point x="670" y="375" type="line" smooth="yes"/>
      <point x="670.0" y="183.955223881"/>
      <point x="502.0" y="-25.0"/>
      <point x="352" y="-25" type="qcurve" smooth="yes"/>
      <point x="207.223880597" y="-25.0"/>
      <point x="41.9850746269" y="163.462686567"/>
      <point x="39" y="356" type="qcurve"/>
      <point x="156" y="397" type="line"/>
      <point x="160.47761194" y="221.626865672"/>
      <point x="267.940298507" y="78.0"/>
      <point x="356" y="78" type="qcurve" smooth="yes"/>
      <point x="441.820895522" y="78.0"/>
      <point x="541.0" y="221.0"/>
      <point x="541" y="371" type="qcurve" smooth="yes"/>
      <point x="541" y="1475" type="line"/>
    </contour>
  </outline>
</glyph>
<glyph name="K" format="1">
  <advance width="962.56"/>
  <unicode hex="004B"/>
  <outline>
    <contour>
      <point x="451" y="801" type="line"/>
      <point x="958" y="0" type="line"/>
      <point x="811" y="0" type="line"/>
      <point x="309" y="793" type="line"/>
      <point x="309" y="797" type="line"/>
      <point x="791" y="1475" type="line"/>
      <point x="936" y="1475" type="line"/>
    </contour>
    <contour>
      <point x="262" y="1475" type="line"/>
      <point x="262" y="0" type="line"/>
      <point x="133" y="0" type="line"/>
      <point x="133" y="1475" type="line"/>
    </contour>
  </outline>
</glyph>
<glyph name="M" format="1">
  <advance width="1337.344"/>
  <unicode hex="004D"/>
  <outline>
    <contour>
      <point x="1206" y="1475" type="line"/>
      <point x="1206" y="0" type="line"/>
      <point x="1083" y="0" type="line"/>
      <point x="1083" y="1331" type="line"/>
      <point x="1071" y="1331" type="line"/>
      <point x="741" y="0" type="line"/>
      <point x="594" y="0" type="line"/>
      <point x="258" y="1331" type="line"/>
      <point x="246" y="1331" type="line"/>
      <point x="246" y="0" type="line"/>
      <point x="133" y="0" type="line"/>
      <point x="133" y="1475" type="line"/>
      <point x="338" y="1475" type="line"/>
      <point x="666" y="158" type="line"/>
      <point x="678" y="158" type="line"/>
      <point x="1004" y="1475" type="line"/>
    </contour>
  </outline>
</glyph>
<glyph name="N" format="1">
  <advance width="1034.24"/>
  <unicode hex="004E"/>
  <outline>
    <contour>
      <point x="901" y="1475" type="line"/>
      <point x="901" y="0" type="line"/>
      <point x="758" y="0" type="line"/>
      <point x="252" y="1262" type="line"/>
      <point x="242" y="1262" type="line"/>
      <point x="242" y="0" type="line"/>
      <point x="133" y="0" type="line"/>
      <point x="133" y="1475" type="line"/>
      <point x="285" y="1475" type="line"/>
      <point x="782" y="238" type="line"/>
      <point x="791" y="238" type="line"/>
      <point x="791" y="1475" type="line"/>
    </contour>
  </outline>
</glyph>
<glyph name="O" format="1">
  <advance width="991.232"/>
  <unicode hex="004F"/>
  <outline>
    <contour>
      <point x="907" y="825" type="qcurve" smooth="yes"/>
      <point x="907" y="651" type="line" smooth="yes"/>
      <point x="907.0" y="341.298507463"/>
      <point x="690.029850746" y="-25.0"/>
      <point x="496" y="-25" type="qcurve" smooth="yes"/>
      <point x="301.970149254" y="-25.0"/>
      <point x="84.0" y="338.552238806"/>
      <point x="84" y="649" type="qcurve" smooth="yes"/>
      <point x="84" y="823" type="line" smooth="yes"/>
      <point x="84.0" y="1133.44776119"/>
      <point x="301.970149254" y="1499.0"/>
      <point x="496" y="1499" type="qcurve" smooth="yes"/>
      <point x="690.029850746" y="1499.0"/>
      <point x="907.0" y="1135.44776119"/>
    </contour>
    <contour>
      <point x="496" y="74" type="qcurve" smooth="yes"/>
      <point x="639.28358209" y="74.0"/>
      <point x="778.0" y="393.179104478"/>
      <point x="778" y="629" type="qcurve" smooth="yes"/>
      <point x="778" y="842" type="line" smooth="yes"/>
      <point x="778.0" y="1075.58208955"/>
      <point x="639.28358209" y="1401.0"/>
      <point x="496" y="1401" type="qcurve" smooth="yes"/>
      <point x="351.970149254" y="1401.0"/>
      <point x="213.0" y="1079.58208955"/>
      <point x="213" y="846" type="qcurve" smooth="yes"/>
      <point x="213" y="633" type="line" smooth="yes"/>
      <point x="213.0" y="397.179104478"/>
      <point x="351.970149254" y="74.0"/>
    </contour>
  </outline>
</glyph>
<glyph name="Q" format="1">
  <advance width="991.232"/>
  <unicode hex="0051"/>
  <outline>
    <contour>
      <point x="975" y="-111" type="qcurve"/>
      <point x="975" y="-203" type="line"/>
      <point x="957.835820896" y="-208.970149254"/>
      <point x="922.671641791" y="-213.0"/>
      <point x="907" y="-213" type="qcurve" smooth="yes"/>
      <point x="842.820895522" y="-213.0"/>
      <point x="760.552238806" y="-158.626865672"/>
      <point x="721" y="-84" type="qcurve" smooth="yes"/>
      <point x="666" y="23" type="line"/>
      <point x="628.686567164" y="-1.62686567164"/>
      <point x="543.014925373" y="-25.0"/>
      <point x="496" y="-25" type="qcurve" smooth="yes"/>
      <point x="301.970149254" y="-25.0"/>
      <point x="84.0" y="338.552238806"/>
      <point x="84" y="649" type="qcurve" smooth="yes"/>
      <point x="84" y="823" type="line" smooth="yes"/>
      <point x="84.0" y="1133.44776119"/>
      <point x="301.970149254" y="1499.0"/>
      <point x="496" y="1499" type="qcurve" smooth="yes"/>
      <point x="690.029850746" y="1499.0"/>
      <point x="907.0" y="1135.44776119"/>
      <point x="907" y="825" type="qcurve" smooth="yes"/>
      <point x="907" y="651" type="line" smooth="yes"/>
      <point x="907.0" y="455.47761194"/>
      <point x="817.328358209" y="157.582089552"/>
      <point x="733" y="74" type="qcurve"/>
      <point x="805" y="-45" type="line" smooth="yes"/>
      <point x="829.626865672" y="-84.552238806"/>
      <point x="876.940298507" y="-121.0"/>
      <point x="915" y="-121" type="qcurve" smooth="yes"/>
      <point x="930.671641791" y="-121.0"/>
      <point x="957.835820896" y="-115.47761194"/>
    </contour>
    <contour>
      <point x="676" y="170" type="line"/>
      <point x="724.507462687" y="238.656716418"/>
      <point x="780.0" y="475.701492537"/>
      <point x="780" y="616" type="qcurve" smooth="yes"/>
      <point x="780" y="840" type="line" smooth="yes"/>
      <point x="780.0" y="1075.07462687"/>
      <point x="641.28358209" y="1401.0"/>
      <point x="498" y="1401" type="qcurve" smooth="yes"/>
      <point x="352.47761194" y="1401.0"/>
      <point x="213.0" y="1079.07462687"/>
      <point x="213" y="844" type="qcurve" smooth="yes"/>
      <point x="213" y="631" type="line" smooth="yes"/>
      <point x="213.0" y="395.179104478"/>
      <point x="352.47761194" y="72.0"/>
      <point x="498" y="72" type="qcurve" smooth="yes"/>
      <point x="533.074626866" y="72.0"/>
      <point x="594.880597015" y="92.8507462687"/>
      <point x="621" y="113" type="qcurve"/>
      <point x="467" y="399" type="line"/>
      <point x="524" y="436" type="line"/>
    </contour>
  </outline>
</glyph>
<glyph name="R" format="1">
  <advance width="960.512"/>
  <unicode hex="0052"/>
  <outline>
    <contour>
      <point x="565" y="680" type="qcurve"/>
      <point x="901" y="0" type="line"/>
      <point x="762" y="0" type="line"/>
      <point x="446" y="651" type="line"/>
      <point x="260" y="651" type="line"/>
      <point x="260" y="0" type="line"/>
      <point x="133" y="0" type="line"/>
      <point x="133" y="1475" type="line"/>
      <point x="436" y="1475" type="line" smooth="yes"/>
      <point x="641.223880597" y="1475.0"/>
      <point x="870.0" y="1269.98507463"/>
      <point x="870" y="1067" type="qcurve" smooth="yes"/>
      <point x="870.0" y="893.119402985"/>
      <point x="697.835820896" y="701.641791045"/>
    </contour>
    <contour>
      <point x="449" y="745" type="line" smooth="yes"/>
      <point x="590.791044776" y="745.0"/>
      <point x="743.0" y="897.059701493"/>
      <point x="743" y="1059" type="qcurve" smooth="yes"/>
      <point x="743.0" y="1216.46268657"/>
      <point x="590.0" y="1376.0"/>
      <point x="440" y="1376" type="qcurve" smooth="yes"/>
      <point x="260" y="1376" type="line"/>
      <point x="260" y="745" type="line"/>
    </contour>
  </outline>
</glyph>
<glyph name="S" format="1">
  <advance width="909.312"/>
  <unicode hex="0053"/>
  <outline>
    <contour>
      <point x="496" y="825" type="qcurve" smooth="yes"/>
      <point x="680.328358209" y="744.402985075"/>
      <point x="836.0" y="535.925373134"/>
      <point x="836" y="371" type="qcurve" smooth="yes"/>
      <point x="836.0" y="179.955223881"/>
      <point x="618.014925373" y="-25.0"/>
      <point x="471" y="-25" type="qcurve" smooth="yes"/>
      <point x="310.552238806" y="-25.0"/>
      <point x="119.014925373" y="148.865671642"/>
      <point x="72" y="322" type="qcurve"/>
      <point x="166" y="381" type="line"/>
      <point x="208.537313433" y="225.029850746"/>
      <point x="360.313432836" y="78.0"/>
      <point x="473" y="78" type="qcurve" smooth="yes"/>
      <point x="575.23880597" y="78.0"/>
      <point x="713.0" y="228.656716418"/>
      <point x="713" y="360" type="qcurve" smooth="yes"/>
      <point x="713.0" y="479.402985075"/>
      <point x="595.462686567" y="637.597014925"/>
      <point x="438" y="707" type="qcurve" smooth="yes"/>
      <point x="261.134328358" y="783.119402985"/>
      <point x="106.0" y="978.552238806"/>
      <point x="106" y="1139" type="qcurve" smooth="yes"/>
      <point x="106.0" y="1282.28358209"/>
      <point x="288.746268657" y="1499.0"/>
      <point x="438" y="1499" type="qcurve" smooth="yes"/>
      <point x="576.059701493" y="1499.0"/>
      <point x="753.746268657" y="1350.02985075"/>
      <point x="803" y="1206" type="qcurve"/>
      <point x="707" y="1145" type="line"/>
      <point x="663.71641791" y="1268.88059701"/>
      <point x="537.253731343" y="1397.0"/>
      <point x="438" y="1397" type="qcurve" smooth="yes"/>
      <point x="332.776119403" y="1397.0"/>
      <point x="227.0" y="1241.29850746"/>
      <point x="227" y="1151" type="qcurve" smooth="yes"/>
      <point x="227.0" y="1036.07462687"/>
      <point x="343.014925373" y="890.671641791"/>
    </contour>
  </outline>
</glyph>
<glyph name="W" format="1">
  <advance width="1548.288"/>
  <unicode hex="0057"/>
  <outline>
    <contour>
      <point x="1374" y="1475" type="line"/>
      <point x="1499" y="1475" type="line"/>
      <point x="1202" y="-12" type="line"/>
      <point x="1038" y="-12" type="line"/>
      <point x="780" y="1317" type="line"/>
      <point x="768" y="1317" type="line"/>
      <point x="510" y="-12" type="line"/>
      <point x="346" y="-12" type="line"/>
      <point x="47" y="1475" type="line"/>
      <point x="178" y="1475" type="line"/>
      <point x="428" y="145" type="line"/>
      <point x="438" y="145" type="line"/>
      <point x="686" y="1475" type="line"/>
      <point x="864" y="1475" type="line"/>
      <point x="1114" y="145" type="line"/>
      <point x="1126" y="145" type="line"/>
    </contour>
  </outline>
</glyph>
<glyph name="backslash" format="1">
  <advance width="612.352"/>
  <unicode hex="005C"/>
  <outline>
    <contour>
      <point x="133" y="1505" type="line"/>
      <point x="633" y="-195" type="line"/>
      <point x="526" y="-195" type="line"/>
      <point x="27" y="1505" type="line"/>
    </contour>
  </outline>
</glyph>
<glyph name="asciicircum" format="1">
  <advance width="815.104"/>
  <unicode hex="005E"/>
  <outline>
    <contour>
      <point x="467" y="1485" type="line"/>
      <point x="737" y="950" type="line"/>
      <point x="655" y="950" type="line"/>
      <point x="408" y="1358" type="line"/>
      <point x="160" y="950" type="line"/>
      <point x="80" y="950" type="line"/>
      <point x="348" y="1485" type="line"/>
    </contour>
  </outline>
</glyph>
<glyph name="underscore" format="1">
  <advance width="808.96"/>
  <unicode hex="005F"/>
  <outline>
    <contour>
      <point x="815" y="-102" type="line"/>
      <point x="815" y="-176" type="line"/>
      <point x="-6" y="-176" type="line"/>
      <point x="-6" y="-102" type="line"/>
    </contour>
  </outline>
</glyph>
<glyph name="grave" format="1">
  <advance width="802.816"/>
  <unicode hex="0060"/>
  <outline>
    <contour>
      <point x="387" y="1432" type="line"/>
      <point x="535" y="1184" type="line"/>
      <point x="455" y="1184" type="line"/>
      <point x="233" y="1432" type="line"/>
    </contour>
  </outline>
</glyph>
<glyph name="a" format="1">
  <advance width="784.384"/>
  <unicode hex="0061"/>
  <outline>
    <contour>
      <point x="745" y="68" type="qcurve"/>
      <point x="745" y="-8" type="line"/>
      <point x="661.417910448" y="-8.0"/>
      <point x="556.940298507" y="86.1194029851"/>
      <point x="545" y="160" type="qcurve"/>
      <point x="537" y="160" type="line"/>
      <point x="495.208955224" y="91.3432835821"/>
      <point x="369.567164179" y="-16.0"/>
      <point x="283" y="-16" type="qcurve" smooth="yes"/>
      <point x="183.746268657" y="-16.0"/>
      <point x="51.0" y="127.134328358"/>
      <point x="51" y="254" type="qcurve" smooth="yes"/>
      <point x="51.0" y="402.507462687"/>
      <point x="294.223880597" y="610.850746269"/>
      <point x="539" y="631" type="qcurve"/>
      <point x="539" y="784" type="line" smooth="yes"/>
      <point x="539.0" y="881.76119403"/>
      <point x="470.402985075" y="975.0"/>
      <point x="401" y="975" type="qcurve" smooth="yes"/>
      <point x="338.313432836" y="975.0"/>
      <point x="224.149253731" y="927.537313433"/>
      <point x="154" y="885" type="qcurve"/>
      <point x="115" y="967" type="line"/>
      <point x="183.656716418" y="1009.53731343"/>
      <point x="335.223880597" y="1069.0"/>
      <point x="430" y="1069" type="qcurve" smooth="yes"/>
      <point x="549.402985075" y="1069.0"/>
      <point x="659.0" y="931.52238806"/>
      <point x="659" y="786" type="qcurve" smooth="yes"/>
      <point x="659" y="201" type="line" smooth="yes"/>
      <point x="659.0" y="139.805970149"/>
      <point x="700.970149254" y="70.9850746269"/>
    </contour>
    <contour>
      <point x="330" y="72" type="qcurve" smooth="yes"/>
      <point x="386.71641791" y="72.0"/>
      <point x="494.223880597" y="154.686567164"/>
      <point x="539" y="242" type="qcurve"/>
      <point x="539" y="563" type="line"/>
      <point x="339.746268657" y="545.089552239"/>
      <point x="168.0" y="371.970149254"/>
      <point x="168" y="266" type="qcurve" smooth="yes"/>
      <point x="168.0" y="177.194029851"/>
      <point x="257.611940299" y="72.0"/>
    </contour>
  </outline>
</glyph>
<glyph name="c" format="1">
  <advance width="720.896"/>
  <unicode hex="0063"/>
  <outline>
    <contour>
      <point x="573" y="289" type="qcurve"/>
      <point x="670" y="260" type="line"/>
      <point x="640.895522388" y="136.119402985"/>
      <point x="500.432835821" y="-20.0"/>
      <point x="387" y="-20" type="qcurve" smooth="yes"/>
      <point x="242.223880597" y="-20.0"/>
      <point x="70.0" y="250.850746269"/>
      <point x="70" y="471" type="qcurve" smooth="yes"/>
      <point x="70" y="584" type="line" smooth="yes"/>
      <point x="70.0" y="800.417910448"/>
      <point x="244.701492537" y="1079.0"/>
      <point x="385" y="1079" type="qcurve" smooth="yes"/>
      <point x="507.388059701" y="1079.0"/>
      <point x="638.388059701" y="913.149253731"/>
      <point x="666" y="793" type="qcurve"/>
      <point x="563" y="766" type="line"/>
      <point x="538.373134328" y="865.253731343"/>
      <point x="457.626865672" y="989.0"/>
      <point x="383" y="989" type="qcurve" smooth="yes"/>
      <point x="294.194029851" y="989.0"/>
      <point x="188.0" y="765.880597015"/>
      <point x="188" y="592" type="qcurve" smooth="yes"/>
      <point x="188" y="469" type="line" smooth="yes"/>
      <point x="188.0" y="292.880597015"/>
      <point x="298.223880597" y="70.0"/>
      <point x="393" y="70" type="qcurve" smooth="yes"/>
      <point x="457.179104478" y="70.0"/>
      <point x="550.611940299" y="186.76119403"/>
    </contour>
  </outline>
</glyph>
<glyph name="e" format="1">
  <advance width="751.616"/>
  <unicode hex="0065"/>
  <outline>
    <contour>
      <point x="686" y="530" type="qcurve" smooth="yes"/>
      <point x="686" y="506" type="line"/>
      <point x="184" y="506" type="line"/>
      <point x="184" y="467" type="line" smooth="yes"/>
      <point x="184.0" y="280.432835821"/>
      <point x="311.044776119" y="76.0"/>
      <point x="420" y="76" type="qcurve" smooth="yes"/>
      <point x="481.194029851" y="76.0"/>
      <point x="589.23880597" y="135.014925373"/>
      <point x="637" y="188" type="qcurve"/>
      <point x="682" y="113" type="line"/>
      <point x="628.268656716" y="54.7910447761"/>
      <point x="491.074626866" y="-20.0"/>
      <point x="406" y="-20" type="qcurve" smooth="yes"/>
      <point x="256.0" y="-20.0"/>
      <point x="70.0" y="235.925373134"/>
      <point x="70" y="471" type="qcurve" smooth="yes"/>
      <point x="70" y="584" type="line" smooth="yes"/>
      <point x="70.0" y="805.641791045"/>
      <point x="241.71641791" y="1079.0"/>
      <point x="385" y="1079" type="qcurve" smooth="yes"/>
      <point x="525.298507463" y="1079.0"/>
      <point x="686.0" y="777.76119403"/>
    </contour>
    <contour>
      <point x="184" y="580" type="line"/>
      <point x="571" y="580" type="line"/>
      <point x="568.014925373" y="759.850746269"/>
      <point x="467.328358209" y="995.0"/>
      <point x="383" y="995" type="qcurve" smooth="yes"/>
      <point x="288.223880597" y="995.0"/>
      <point x="184.0" y="767.343283582"/>
      <point x="184" y="586" type="qcurve" smooth="yes"/>
    </contour>
  </outline>
</glyph>
<glyph name="f" format="1">
  <advance width="516.096"/>
  <unicode hex="0066"/>
  <outline>
    <contour>
      <point x="547" y="1530" type="qcurve"/>
      <point x="547" y="1430" type="line"/>
      <point x="519.388059701" y="1446.41791045"/>
      <point x="466.059701493" y="1464.0"/>
      <point x="428" y="1464" type="qcurve" smooth="yes"/>
      <point x="374.268656716" y="1464.0"/>
      <point x="307.0" y="1391.08955224"/>
      <point x="307" y="1309" type="qcurve" smooth="yes"/>
      <point x="307" y="1049" type="line"/>
      <point x="504" y="1049" type="line"/>
      <point x="504" y="961" type="line"/>
      <point x="307" y="961" type="line"/>
      <point x="307" y="0" type="line"/>
      <point x="188" y="0" type="line"/>
      <point x="188" y="961" type="line"/>
      <point x="23" y="961" type="line"/>
      <point x="23" y="1049" type="line"/>
      <point x="188" y="1049" type="line"/>
      <point x="188" y="1313" type="line" smooth="yes"/>
      <point x="188.0" y="1435.3880597"/>
      <point x="306.731343284" y="1554.0"/>
      <point x="403" y="1554" type="qcurve" smooth="yes"/>
      <point x="455.23880597" y="1554.0"/>
      <point x="517.895522388" y="1541.94029851"/>
    </contour>
  </outline>
</glyph>
<glyph name="h" format="1">
  <advance width="802.816"/>
  <unicode hex="0068"/>
  <outline>
    <contour>
      <point x="698" y="854" type="qcurve" smooth="yes"/>
      <point x="698" y="0" type="line"/>
      <point x="575" y="0" type="line"/>
      <point x="575" y="829" type="line" smooth="yes"/>
      <point x="575.0" y="902.880597015"/>
      <point x="523.23880597" y="973.0"/>
      <point x="471" y="973" type="qcurve" smooth="yes"/>
      <point x="415.776119403" y="973.0"/>
      <point x="290.701492537" y="864.71641791"/>
      <point x="231" y="758" type="qcurve"/>
      <point x="231" y="0" type="line"/>
      <point x="111" y="0" type="line"/>
      <point x="111" y="1516" type="line"/>
      <point x="231" y="1559" type="line"/>
      <point x="231" y="852" type="line"/>
      <point x="240" y="852" type="line"/>
      <point x="305.671641791" y="949.76119403"/>
      <point x="438.925373134" y="1069.0"/>
      <point x="524" y="1069" type="qcurve" smooth="yes"/>
      <point x="611.313432836" y="1069.0"/>
      <point x="698.0" y="950.268656716"/>
    </contour>
  </outline>
</glyph>
<glyph name="k" format="1">
  <advance width="753.664"/>
  <unicode hex="006B"/>
  <outline>
    <contour>
      <point x="391" y="541" type="line"/>
      <point x="745" y="0" type="line"/>
      <point x="608" y="0" type="line"/>
      <point x="262" y="530" type="line"/>
      <point x="262" y="537" type="line"/>
      <point x="602" y="1059" type="line"/>
      <point x="733" y="1059" type="line"/>
    </contour>
    <contour>
      <point x="231" y="1559" type="line"/>
      <point x="231" y="0" type="line"/>
      <point x="111" y="0" type="line"/>
      <point x="111" y="1516" type="line"/>
    </contour>
  </outline>
</glyph>
<glyph name="l" format="1">
  <advance width="366.592"/>
  <unicode hex="006C"/>
  <outline>
    <contour>
      <point x="244" y="1559" type="line"/>
      <point x="244" y="0" type="line"/>
      <point x="123" y="0" type="line"/>
      <point x="123" y="1516" type="line"/>
    </contour>
  </outline>
</glyph>
<glyph name="m" format="1">
  <advance width="1239.04"/>
  <unicode hex="006D"/>
  <outline>
    <contour>
      <point x="1135" y="854" type="qcurve" smooth="yes"/>
      <point x="1135" y="0" type="line"/>
      <point x="1014" y="0" type="line"/>
      <point x="1014" y="829" type="line" smooth="yes"/>
      <point x="1014.0" y="899.895522388"/>
      <point x="965.746268657" y="973.0"/>
      <point x="915" y="973" type="qcurve" smooth="yes"/>
      <point x="860.52238806" y="973.0"/>
      <point x="738.71641791" y="865.194029851"/>
      <point x="682" y="754" type="qcurve"/>
      <point x="682" y="0" type="line"/>
      <point x="563" y="0" type="line"/>
      <point x="563" y="829" type="line" smooth="yes"/>
      <point x="563.0" y="899.895522388"/>
      <point x="514.492537313" y="973.0"/>
      <point x="463" y="973" type="qcurve" smooth="yes"/>
      <point x="407.776119403" y="973.0"/>
      <point x="287.71641791" y="865.194029851"/>
      <point x="231" y="754" type="qcurve"/>
      <point x="231" y="0" type="line"/>
      <point x="111" y="0" type="line"/>
      <point x="111" y="1034" type="line"/>
      <point x="231" y="1077" type="line"/>
      <point x="231" y="852" type="line"/>
      <point x="238" y="852" type="line"/>
      <point x="302.179104478" y="951.253731343"/>
      <point x="429.671641791" y="1069.0"/>
      <point x="514" y="1069" type="qcurve" smooth="yes"/>
      <point x="599.820895522" y="1069.0"/>
      <point x="682.0" y="952.805970149"/>
      <point x="682" y="864" type="qcurve" smooth="yes"/>
      <point x="682" y="852" type="line"/>
      <point x="688" y="852" type="line"/>
      <point x="752.179104478" y="951.253731343"/>
      <point x="880.671641791" y="1069.0"/>
      <point x="965" y="1069" type="qcurve" smooth="yes"/>
      <point x="1051.56716418" y="1069.0"/>
      <point x="1135.0" y="947.28358209"/>
    </contour>
  </outline>
</glyph>
<glyph name="o" format="1">
  <advance width="798.72"/>
  <unicode hex="006F"/>
  <outline>
    <contour>
      <point x="731" y="569" type="qcurve" smooth="yes"/>
      <point x="731" y="489" type="line" smooth="yes"/>
      <point x="731.0" y="268.104477612"/>
      <point x="549.985074627" y="-20.0"/>
      <point x="397" y="-20" type="qcurve" smooth="yes"/>
      <point x="244.76119403" y="-20.0"/>
      <point x="70.0" y="268.104477612"/>
      <point x="70" y="489" type="qcurve" smooth="yes"/>
      <point x="70" y="569" type="line" smooth="yes"/>
      <point x="70.0" y="790.641791045"/>
      <point x="248.76119403" y="1079.0"/>
      <point x="401" y="1079" type="qcurve" smooth="yes"/>
      <point x="553.985074627" y="1079.0"/>
      <point x="731.0" y="790.641791045"/>
    </contour>
    <contour>
      <point x="401" y="66" type="qcurve" smooth="yes"/>
      <point x="497.268656716" y="66.0"/>
      <point x="610.0" y="304.134328358"/>
      <point x="610" y="481" type="qcurve" smooth="yes"/>
      <point x="610" y="578" type="line" smooth="yes"/>
      <point x="610.0" y="754.865671642"/>
      <point x="493.268656716" y="993.0"/>
      <point x="397" y="993" type="qcurve" smooth="yes"/>
      <point x="300.731343284" y="993.0"/>
      <point x="188.0" y="754.865671642"/>
      <point x="188" y="578" type="qcurve" smooth="yes"/>
      <point x="188" y="481" type="line" smooth="yes"/>
      <point x="188.0" y="304.134328358"/>
      <point x="304.731343284" y="66.0"/>
    </contour>
  </outline>
</glyph>
<glyph name="u" format="1">
  <advance width="802.816"/>
  <unicode hex="0075"/>
  <outline>
    <contour>
      <point x="692" y="1059" type="line"/>
      <point x="692" y="25" type="line"/>
      <point x="571" y="-18" type="line"/>
      <point x="571" y="207" type="line"/>
      <point x="563" y="207" type="line"/>
      <point x="497.328358209" y="109.23880597"/>
      <point x="364.074626866" y="-10.0"/>
      <point x="279" y="-10" type="qcurve" smooth="yes"/>
      <point x="191.686567164" y="-10.0"/>
      <point x="104.0" y="108.731343284"/>
      <point x="104" y="205" type="qcurve" smooth="yes"/>
      <point x="104" y="1059" type="line"/>
      <point x="227" y="1059" type="line"/>
      <point x="227" y="227" type="line" smooth="yes"/>
      <point x="227.0" y="155.358208955"/>
      <point x="279.76119403" y="86.0"/>
      <point x="332" y="86" type="qcurve" smooth="yes"/>
      <point x="387.223880597" y="86.0"/>
      <point x="512.044776119" y="194.28358209"/>
      <point x="571" y="301" type="qcurve"/>
      <point x="571" y="1059" type="line"/>
    </contour>
  </outline>
</glyph>
<glyph name="v" format="1">
  <advance width="741.376"/>
  <unicode hex="0076"/>
  <outline>
    <contour>
      <point x="588" y="1059" type="line"/>
      <point x="702" y="1059" type="line"/>
      <point x="440" y="-12" type="line"/>
      <point x="301" y="-12" type="line"/>
      <point x="41" y="1059" type="line"/>
      <point x="162" y="1059" type="line"/>
      <point x="375" y="123" type="line"/>
    </contour>
  </outline>
</glyph>
<glyph name="w" format="1">
  <advance width="1224.704"/>
  <unicode hex="0077"/>
  <outline>
    <contour>
      <point x="1067" y="1059" type="line"/>
      <point x="1182" y="1059" type="line"/>
      <point x="928" y="-8" type="line"/>
      <point x="803" y="-8" type="line"/>
      <point x="614" y="879" type="line"/>
      <point x="422" y="-8" type="line"/>
      <point x="297" y="-8" type="line"/>
      <point x="43" y="1059" type="line"/>
      <point x="164" y="1059" type="line"/>
      <point x="367" y="147" type="line"/>
      <point x="555" y="1059" type="line"/>
      <point x="678" y="1059" type="line"/>
      <point x="866" y="147" type="line"/>
    </contour>
  </outline>
</glyph>
<glyph name="z" format="1">
  <advance width="675.84"/>
  <unicode hex="007A"/>
  <outline>
    <contour>
      <point x="627" y="92" type="line"/>
      <point x="627" y="0" type="line"/>
      <point x="47" y="0" type="line"/>
      <point x="47" y="78" type="line"/>
      <point x="496" y="958" type="line"/>
      <point x="72" y="958" type="line"/>
      <point x="72" y="1049" type="line"/>
      <point x="627" y="1049" type="line"/>
      <point x="627" y="971" type="line"/>
      <point x="176" y="92" type="line"/>
    </contour>
  </outline>
</glyph>
<glyph name="braceleft" format="1">
  <advance width="618.496"/>
  <unicode hex="007B"/>
  <outline>
    <contour>
      <point x="565" y="-90" type="line"/>
      <point x="565" y="-164" type="line"/>
      <point x="451" y="-164" type="line" smooth="yes"/>
      <point x="334.582089552" y="-164.0"/>
      <point x="217.0" y="-36.8656716418"/>
      <point x="217" y="90" type="qcurve" smooth="yes"/>
      <point x="217.0" y="160.149253731"/>
      <point x="250.0" y="347.820895522"/>
      <point x="250" y="412" type="qcurve" smooth="yes"/>
      <point x="250.0" y="520.208955224"/>
      <point x="127.298507463" y="616.0"/>
      <point x="37" y="616" type="qcurve"/>
      <point x="37" y="694" type="line"/>
      <point x="127.298507463" y="694.0"/>
      <point x="250.0" y="790.791044776"/>
      <point x="250" y="899" type="qcurve" smooth="yes"/>
      <point x="250.0" y="963.179104478"/>
      <point x="217.0" y="1150.10447761"/>
      <point x="217" y="1221" type="qcurve" smooth="yes"/>
      <point x="217.0" y="1347.86567164"/>
      <point x="334.582089552" y="1475.0"/>
      <point x="451" y="1475" type="qcurve" smooth="yes"/>
      <point x="565" y="1475" type="line"/>
      <point x="565" y="1401" type="line"/>
      <point x="479" y="1401" type="line" smooth="yes"/>
      <point x="402.880597015" y="1401.0"/>
      <point x="330.0" y="1316.31343284"/>
      <point x="330" y="1229" type="qcurve" smooth="yes"/>
      <point x="330.0" y="1166.31343284"/>
      <point x="360.0" y="991.865671642"/>
      <point x="360" y="915" type="qcurve" smooth="yes"/>
      <point x="360.0" y="797.835820896"/>
      <point x="253.164179104" y="692.358208955"/>
      <point x="186" y="664" type="qcurve"/>
      <point x="186" y="647" type="line"/>
      <point x="253.164179104" y="617.895522388"/>
      <point x="360.0" y="512.910447761"/>
      <point x="360" y="395" type="qcurve" smooth="yes"/>
      <point x="360.0" y="318.880597015"/>
      <point x="330.0" y="144.686567164"/>
      <point x="330" y="82" type="qcurve" smooth="yes"/>
      <point x="330.0" y="-5.31343283582"/>
      <point x="402.880597015" y="-90.0"/>
      <point x="479" y="-90" type="qcurve" smooth="yes"/>
    </contour>
  </outline>
</glyph>
<glyph name="asciitilde" format="1">
  <advance width="612.352"/>
  <unicode hex="007E"/>
  <outline>
    <contour>
      <point x="492" y="666" type="qcurve"/>
      <point x="555" y="666" type="line"/>
      <point x="556.492537313" y="571.223880597"/>
      <point x="491.671641791" y="479.0"/>
      <point x="426" y="479" type="qcurve" smooth="yes"/>
      <point x="358.835820896" y="479.0"/>
      <point x="235.253731343" y="571.0"/>
      <point x="186" y="571" type="qcurve" smooth="yes"/>
      <point x="152.417910448" y="571.0"/>
      <point x="122.492537313" y="527.776119403"/>
      <point x="121" y="483" type="qcurve"/>
      <point x="57" y="483" type="line"/>
      <point x="55.5074626866" y="579.268656716"/>
      <point x="120.328358209" y="670.0"/>
      <point x="186" y="670" type="qcurve" smooth="yes"/>
      <point x="255.402985075" y="670.0"/>
      <point x="378.23880597" y="580.0"/>
      <point x="426" y="580" type="qcurve" smooth="yes"/>
      <point x="459.582089552" y="580.0"/>
      <point x="492.0" y="622.71641791"/>
    </contour>
  </outline>
</glyph>
<glyph name="sterling" format="1">
  <advance width="915.456"/>
  <unicode hex="00A3"/>
  <outline>
    <contour>
      <point x="788" y="381" type="qcurve"/>
      <point x="874" y="346" type="line"/>
      <point x="847.134328358" y="157.940298507"/>
      <point x="717.940298507" y="-12.0"/>
      <point x="606" y="-12" type="qcurve" smooth="yes"/>
      <point x="532.865671642" y="-12.0"/>
      <point x="386.880597015" y="63.328358209"/>
      <point x="313" y="129" type="qcurve"/>
      <point x="270.462686567" y="78.2537313433"/>
      <point x="154.149253731" y="8.89552238806"/>
      <point x="84" y="-12" type="qcurve"/>
      <point x="84" y="92" type="line"/>
      <point x="174.298507463" y="124.089552239"/>
      <point x="289.0" y="279.014925373"/>
      <point x="289" y="432" type="qcurve" smooth="yes"/>
      <point x="289.0" y="502.149253731"/>
      <point x="269.940298507" y="633.791044776"/>
      <point x="258" y="692" type="qcurve"/>
      <point x="70" y="692" type="line"/>
      <point x="70" y="772" type="line"/>
      <point x="238" y="772" type="line"/>
      <point x="213.373134328" y="862.298507463"/>
      <point x="170.0" y="1038.2238806"/>
      <point x="170" y="1133" type="qcurve" smooth="yes"/>
      <point x="170.0" y="1302.40298507"/>
      <point x="349.492537313" y="1499.0"/>
      <point x="498" y="1499" type="qcurve" smooth="yes"/>
      <point x="630.835820896" y="1499.0"/>
      <point x="780.492537313" y="1362.46268657"/>
      <point x="829" y="1255" type="qcurve"/>
      <point x="729" y="1200" type="line"/>
      <point x="686.462686567" y="1290.29850746"/>
      <point x="583.074626866" y="1397.0"/>
      <point x="498" y="1397" type="qcurve" smooth="yes"/>
      <point x="401.731343284" y="1397.0"/>
      <point x="293.0" y="1251.65671642"/>
      <point x="293" y="1133" type="qcurve" smooth="yes"/>
      <point x="293.0" y="1047.17910448"/>
      <point x="339.611940299" y="868.268656716"/>
      <point x="362" y="772" type="qcurve"/>
      <point x="670" y="772" type="line"/>
      <point x="670" y="692" type="line"/>
      <point x="383" y="692" type="line"/>
      <point x="394.940298507" y="632.298507463"/>
      <point x="412.0" y="502.656716418"/>
      <point x="412" y="434" type="qcurve" smooth="yes"/>
      <point x="412.0" y="368.328358209"/>
      <point x="388.402985075" y="259.029850746"/>
      <point x="369" y="215" type="qcurve"/>
      <point x="431.686567164" y="152.313432836"/>
      <point x="552.507462687" y="92.0"/>
      <point x="604" y="92" type="qcurve" smooth="yes"/>
      <point x="675.641791045" y="92.0"/>
      <point x="761.134328358" y="220.552238806"/>
    </contour>
  </outline>
</glyph>
<glyph name="dieresis" format="1">
  <advance width="802.816"/>
  <unicode hex="00A8"/>
  <outline>
    <contour>
      <point x="324" y="1337" type="line"/>
      <point x="324" y="1184" type="line"/>
      <point x="197" y="1184" type="line"/>
      <point x="197" y="1337" type="line"/>
    </contour>
    <contour>
      <point x="606" y="1337" type="line"/>
      <point x="606" y="1184" type="line"/>
      <point x="479" y="1184" type="line"/>
      <point x="479" y="1337" type="line"/>
    </contour>
  </outline>
</glyph>
<glyph name="copyright" format="1">
  <advance width="1347.584"/>
  <unicode hex="00A9"/>
  <outline>
    <contour>
      <point x="809" y="612" type="qcurve"/>
      <point x="899" y="588" type="line"/>
      <point x="874.373134328" y="462.626865672"/>
      <point x="767.253731343" y="322.0"/>
      <point x="668" y="322" type="qcurve" smooth="yes"/>
      <point x="559.044776119" y="322.0"/>
      <point x="432.0" y="524.119402985"/>
      <point x="432" y="698" type="qcurve" smooth="yes"/>
      <point x="432" y="793" type="line" smooth="yes"/>
      <point x="432.0" y="968.373134328"/>
      <point x="560.537313433" y="1171.0"/>
      <point x="668" y="1171" type="qcurve" smooth="yes"/>
      <point x="764.268656716" y="1171.0"/>
      <point x="869.865671642" y="1041.67164179"/>
      <point x="893" y="926" type="qcurve"/>
      <point x="803" y="899" type="line"/>
      <point x="784.343283582" y="995.268656716"/>
      <point x="723.970149254" y="1094.0"/>
      <point x="668" y="1094" type="qcurve" smooth="yes"/>
      <point x="595.611940299" y="1094.0"/>
      <point x="530.0" y="924.880597015"/>
      <point x="530" y="801" type="qcurve" smooth="yes"/>
      <point x="530" y="696" type="line" smooth="yes"/>
      <point x="530.0" y="569.134328358"/>
      <point x="601.343283582" y="401.0"/>
      <point x="670" y="401" type="qcurve" smooth="yes"/>
      <point x="728.208955224" y="401.0"/>
      <point x="788.850746269" y="509.76119403"/>
    </contour>
    <contour>
      <point x="676" y="1499" type="qcurve" smooth="yes"/>
      <point x="937.194029851" y="1499.0"/>
      <point x="1276.0" y="1064.6119403"/>
      <point x="1276" y="737" type="qcurve" smooth="yes"/>
      <point x="1276.0" y="410.134328358"/>
      <point x="936.686567164" y="-25.0"/>
      <point x="674" y="-25" type="qcurve" smooth="yes"/>
      <point x="412.805970149" y="-25.0"/>
      <point x="74.0" y="410.134328358"/>
      <point x="74" y="737" type="qcurve" smooth="yes"/>
      <point x="74.0" y="1064.6119403"/>
      <point x="413.313432836" y="1499.0"/>
    </contour>
    <contour>
      <point x="676" y="29" type="qcurve" smooth="yes"/>
      <point x="915.552238806" y="29.0"/>
      <point x="1214.0" y="433.268656716"/>
      <point x="1214" y="737" type="qcurve" smooth="yes"/>
      <point x="1214.0" y="1039.98507463"/>
      <point x="915.044776119" y="1446.0"/>
      <point x="674" y="1446" type="qcurve" smooth="yes"/>
      <point x="432.208955224" y="1446.0"/>
      <point x="135.0" y="1041.47761194"/>
      <point x="135" y="737" type="qcurve" smooth="yes"/>
      <point x="135.0" y="434.76119403"/>
      <point x="432.71641791" y="29.0"/>
    </contour>
  </outline>
</glyph>
<glyph name="uni00AE" format="1">
  <advance width="1347.584"/>
  <unicode hex="00AE"/>
  <outline>
    <contour>
      <point x="754" y="705" type="qcurve"/>
      <point x="940" y="332" type="line"/>
      <point x="834" y="332" type="line"/>
      <point x="657" y="688" type="line"/>
      <point x="573" y="688" type="line"/>
      <point x="573" y="332" type="line"/>
      <point x="477" y="332" type="line"/>
      <point x="477" y="1163" type="line"/>
      <point x="670" y="1163" type="line" smooth="yes"/>
      <point x="779.701492537" y="1163.0"/>
      <point x="918.0" y="1045.67164179"/>
      <point x="918" y="930" type="qcurve" smooth="yes"/>
      <point x="918.0" y="832.23880597"/>
      <point x="825.641791045" y="722.910447761"/>
    </contour>
    <contour>
      <point x="676" y="1499" type="qcurve" smooth="yes"/>
      <point x="937.194029851" y="1499.0"/>
      <point x="1276.0" y="1064.6119403"/>
      <point x="1276" y="737" type="qcurve" smooth="yes"/>
      <point x="1276.0" y="410.134328358"/>
      <point x="936.686567164" y="-25.0"/>
      <point x="674" y="-25" type="qcurve" smooth="yes"/>
      <point x="412.805970149" y="-25.0"/>
      <point x="74.0" y="410.134328358"/>
      <point x="74" y="737" type="qcurve" smooth="yes"/>
      <point x="74.0" y="1064.6119403"/>
      <point x="413.313432836" y="1499.0"/>
    </contour>
    <contour>
      <point x="676" y="29" type="qcurve" smooth="yes"/>
      <point x="915.552238806" y="29.0"/>
      <point x="1214.0" y="433.268656716"/>
      <point x="1214" y="737" type="qcurve" smooth="yes"/>
      <point x="1214.0" y="1039.98507463"/>
      <point x="915.044776119" y="1446.0"/>
      <point x="674" y="1446" type="qcurve" smooth="yes"/>
      <point x="432.208955224" y="1446.0"/>
      <point x="135.0" y="1041.47761194"/>
      <point x="135" y="737" type="qcurve" smooth="yes"/>
      <point x="135.0" y="434.76119403"/>
      <point x="432.71641791" y="29.0"/>
    </contour>
    <contour>
      <point x="668" y="766" type="line" smooth="yes"/>
      <point x="741.134328358" y="766.0"/>
      <point x="819.0" y="841.671641791"/>
      <point x="819" y="926" type="qcurve" smooth="yes"/>
      <point x="819.0" y="1005.10447761"/>
      <point x="738.626865672" y="1083.0"/>
      <point x="664" y="1083" type="qcurve" smooth="yes"/>
      <point x="573" y="1083" type="line"/>
      <point x="573" y="766" type="line"/>
    </contour>
  </outline>
</glyph>
<glyph name="degree" format="1">
  <advance width="657.408"/>
  <unicode hex="00B0"/>
  <outline>
    <contour>
      <point x="330" y="1483" type="qcurve" smooth="yes"/>
      <point x="435.223880597" y="1483.0"/>
      <point x="575.0" y="1346.2238806"/>
      <point x="575" y="1241" type="qcurve" smooth="yes"/>
      <point x="575.0" y="1137.26865672"/>
      <point x="435.223880597" y="1001.0"/>
      <point x="330" y="1001" type="qcurve" smooth="yes"/>
      <point x="225.52238806" y="1001.0"/>
      <point x="86.0" y="1137.26865672"/>
      <point x="86" y="1241" type="qcurve" smooth="yes"/>
      <point x="86.0" y="1346.2238806"/>
      <point x="225.52238806" y="1483.0"/>
    </contour>
    <contour>
      <point x="330" y="1073" type="qcurve" smooth="yes"/>
      <point x="401.641791045" y="1073.0"/>
      <point x="494.0" y="1169.35820896"/>
      <point x="494" y="1241" type="qcurve" smooth="yes"/>
      <point x="494.0" y="1314.13432836"/>
      <point x="401.641791045" y="1411.0"/>
      <point x="330" y="1411" type="qcurve" smooth="yes"/>
      <point x="259.850746269" y="1411.0"/>
      <point x="168.0" y="1314.13432836"/>
      <point x="168" y="1241" type="qcurve" smooth="yes"/>
      <point x="168.0" y="1169.35820896"/>
      <point x="259.850746269" y="1073.0"/>
    </contour>
  </outline>
</glyph>
<glyph name="acute" format="1">
  <advance width="802.816"/>
  <unicode hex="00B4"/>
  <outline>
    <contour>
      <point x="414" y="1432" type="line"/>
      <point x="569" y="1432" type="line"/>
      <point x="346" y="1184" type="line"/>
      <point x="268" y="1184" type="line"/>
    </contour>
  </outline>
</glyph>
<glyph name="paragraph" format="1">
  <advance width="888.832"/>
  <unicode hex="00B6"/>
  <outline>
    <contour>
      <point x="756" y="1475" type="line"/>
      <point x="756" y="0" type="line"/>
      <point x="676" y="0" type="line"/>
      <point x="676" y="1399" type="line"/>
      <point x="504" y="1399" type="line"/>
      <point x="504" y="0" type="line"/>
      <point x="422" y="0" type="line"/>
      <point x="422" y="743" type="line"/>
      <point x="270.507462687" y="757.179104478"/>
      <point x="57.0" y="937.641791045"/>
      <point x="57" y="1116" type="qcurve" smooth="yes"/>
      <point x="57.0" y="1296.59701493"/>
      <point x="274.597014925" y="1475.0"/>
      <point x="444" y="1475" type="qcurve" smooth="yes"/>
    </contour>
  </outline>
</glyph>
<glyph name="cedilla" format="1">
  <advance width="802.816"/>
  <unicode hex="00B8"/>
  <outline>
    <contour>
      <point x="475" y="-74" type="qcurve" smooth="yes"/>
      <point x="528.731343284" y="-74.0"/>
      <point x="590.0" y="-124.985074627"/>
      <point x="590" y="-172" type="qcurve" smooth="yes"/>
      <point x="590.0" y="-248.119402985"/>
      <point x="414.925373134" y="-324.985074627"/>
      <point x="250" y="-322" type="qcurve"/>
      <point x="250" y="-281" type="line"/>
      <point x="387.313432836" y="-277.268656716"/>
      <point x="502.0" y="-227.791044776"/>
      <point x="502" y="-186" type="qcurve" smooth="yes"/>
      <point x="502.0" y="-165.104477612"/>
      <point x="468.597014925" y="-139.0"/>
      <point x="438" y="-139" type="qcurve" smooth="yes"/>
      <point x="414.119402985" y="-139.0"/>
      <point x="370.149253731" y="-148.805970149"/>
      <point x="350" y="-160" type="qcurve"/>
      <point x="313" y="-133" type="line"/>
      <point x="391" y="0" type="line"/>
      <point x="451" y="0" type="line"/>
      <point x="399" y="-90" type="line"/>
      <point x="416.164179104" y="-82.5373134328"/>
      <point x="451.865671642" y="-74.0"/>
    </contour>
  </outline>
</glyph>
<glyph name="guillemotright" format="1">
  <advance width="733.184"/>
  <unicode hex="00BB"/>
  <outline>
    <contour>
      <point x="135" y="899" type="line"/>
      <point x="389" y="528" type="line"/>
      <point x="135" y="160" type="line"/>
      <point x="59" y="160" type="line"/>
      <point x="254" y="528" type="line"/>
      <point x="59" y="899" type="line"/>
    </contour>
    <contour>
      <point x="440" y="899" type="line"/>
      <point x="696" y="528" type="line"/>
      <point x="440" y="160" type="line"/>
      <point x="367" y="160" type="line"/>
      <point x="559" y="528" type="line"/>
      <point x="367" y="899" type="line"/>
    </contour>
  </outline>
</glyph>
<glyph name="Ccedilla" format="1">
  <advance width="927.744"/>
  <unicode hex="00C7"/>
  <outline>
    <contour>
      <point x="754" y="453" type="qcurve"/>
      <point x="868" y="424" type="line"/>
      <point x="832.925373134" y="225.492537313"/>
      <point x="666.447761194" y="-16.7910447761"/>
      <point x="506" y="-25" type="qcurve"/>
      <point x="469" y="-90" type="line"/>
      <point x="486.164179104" y="-82.5373134328"/>
      <point x="521.865671642" y="-74.0"/>
      <point x="545" y="-74" type="qcurve" smooth="yes"/>
      <point x="597.985074627" y="-74.0"/>
      <point x="659.0" y="-124.985074627"/>
      <point x="659" y="-172" type="qcurve" smooth="yes"/>
      <point x="659.0" y="-248.119402985"/>
      <point x="484.671641791" y="-324.985074627"/>
      <point x="319" y="-322" type="qcurve"/>
      <point x="319" y="-281" type="line"/>
      <point x="457.059701493" y="-277.268656716"/>
      <point x="571.0" y="-227.791044776"/>
      <point x="571" y="-186" type="qcurve" smooth="yes"/>
      <point x="571.0" y="-165.104477612"/>
      <point x="538.597014925" y="-139.0"/>
      <point x="508" y="-139" type="qcurve" smooth="yes"/>
      <point x="483.373134328" y="-139.0"/>
      <point x="439.402985075" y="-148.805970149"/>
      <point x="420" y="-160" type="qcurve"/>
      <point x="383" y="-133" type="line"/>
      <point x="449" y="-23" type="line"/>
      <point x="278.850746269" y="-5.83582089552"/>
      <point x="84.0" y="354.223880597"/>
      <point x="84" y="649" type="qcurve" smooth="yes"/>
      <point x="84" y="823" type="line" smooth="yes"/>
      <point x="84.0" y="1133.44776119"/>
      <point x="299.179104478" y="1499.0"/>
      <point x="485" y="1499" type="qcurve" smooth="yes"/>
      <point x="645.447761194" y="1499.0"/>
      <point x="824.925373134" y="1273.53731343"/>
      <point x="860" y="1081" type="qcurve"/>
      <point x="741" y="1044" type="line"/>
      <point x="710.402985075" y="1214.14925373"/>
      <point x="592.462686567" y="1399.0"/>
      <point x="485" y="1399" type="qcurve" smooth="yes"/>
      <point x="349.179104478" y="1399.0"/>
      <point x="213.0" y="1078.53731343"/>
      <point x="213" y="836" type="qcurve" smooth="yes"/>
      <point x="213" y="643" type="line" smooth="yes"/>
      <point x="213.0" y="398.223880597"/>
      <point x="353.179104478" y="76.0"/>
      <point x="489" y="76" type="qcurve" smooth="yes"/>
      <point x="597.955223881" y="76.0"/>
      <point x="718.925373134" y="266.432835821"/>
    </contour>
  </outline>
</glyph>
<glyph name="Eth" format="1">
  <advance width="1036.288"/>
  <unicode hex="00D0"/>
  <outline>
    <contour>
      <point x="950" y="821" type="qcurve" smooth="yes"/>
      <point x="950" y="655" type="line" smooth="yes"/>
      <point x="950.0" y="345.298507463"/>
      <point x="685.791044776" y="0.0"/>
      <point x="444" y="0" type="qcurve" smooth="yes"/>
      <point x="184" y="0" type="line"/>
      <point x="184" y="721" type="line"/>
      <point x="41" y="721" type="line"/>
      <point x="41" y="821" type="line"/>
      <point x="184" y="821" type="line"/>
      <point x="184" y="1475" type="line"/>
      <point x="453" y="1475" type="line" smooth="yes"/>
      <point x="692.552238806" y="1475.0"/>
      <point x="950.0" y="1129.95522388"/>
    </contour>
    <contour>
      <point x="451" y="98" type="line" smooth="yes"/>
      <point x="626.373134328" y="98.0"/>
      <point x="821.0" y="381.268656716"/>
      <point x="821" y="635" type="qcurve" smooth="yes"/>
      <point x="821" y="836" type="line" smooth="yes"/>
      <point x="821.0" y="1092.71641791"/>
      <point x="627.582089552" y="1376.0"/>
      <point x="444" y="1376" type="qcurve" smooth="yes"/>
      <point x="313" y="1376" type="line"/>
      <point x="313" y="821" type="line"/>
      <point x="526" y="821" type="line"/>
      <point x="526" y="721" type="line"/>
      <point x="313" y="721" type="line"/>
      <point x="313" y="98" type="line"/>
    </contour>
  </outline>
</glyph>
<glyph name="multiply" format="1">
  <advance width="974.848"/>
  <unicode hex="00D7"/>
  <outline>
    <contour>
      <point x="553" y="727" type="line"/>
      <point x="854" y="428" type="line"/>
      <point x="786" y="358" type="line"/>
      <point x="485" y="659" type="line"/>
      <point x="188" y="358" type="line"/>
      <point x="119" y="428" type="line"/>
      <point x="420" y="727" type="line"/>
      <point x="119" y="1024" type="line"/>
      <point x="188" y="1094" type="line"/>
      <point x="485" y="791" type="line"/>
      <point x="786" y="1094" type="line"/>
      <point x="854" y="1024" type="line"/>
    </contour>
  </outline>
</glyph>
<glyph name="ccedilla" format="1">
  <advance width="720.896"/>
  <unicode hex="00E7"/>
  <outline>
    <contour>
      <point x="573" y="289" type="qcurve"/>
      <point x="670" y="260" type="line"/>
      <point x="640.895522388" y="139.104477612"/>
      <point x="507.955223881" y="-15.5223880597"/>
      <point x="399" y="-20" type="qcurve"/>
      <point x="358" y="-90" type="line"/>
      <point x="376.656716418" y="-82.5373134328"/>
      <point x="413.104477612" y="-74.0"/>
      <point x="434" y="-74" type="qcurve" smooth="yes"/>
      <point x="487.731343284" y="-74.0"/>
      <point x="551.0" y="-124.985074627"/>
      <point x="551" y="-172" type="qcurve" smooth="yes"/>
      <point x="551.0" y="-248.119402985"/>
      <point x="373.925373134" y="-324.985074627"/>
      <point x="209" y="-322" type="qcurve"/>
      <point x="209" y="-281" type="line"/>
      <point x="347.805970149" y="-277.268656716"/>
      <point x="461.0" y="-227.791044776"/>
      <point x="461" y="-186" type="qcurve" smooth="yes"/>
      <point x="461.0" y="-165.104477612"/>
      <point x="428.104477612" y="-139.0"/>
      <point x="399" y="-139" type="qcurve" smooth="yes"/>
      <point x="373.626865672" y="-139.0"/>
      <point x="330.641791045" y="-148.805970149"/>
      <point x="309" y="-160" type="qcurve"/>
      <point x="274" y="-133" type="line"/>
      <point x="344" y="-16" type="line"/>
      <point x="217.134328358" y="3.40298507463"/>
      <point x="70.0" y="269.507462687"/>
      <point x="70" y="471" type="qcurve" smooth="yes"/>
      <point x="70" y="584" type="line" smooth="yes"/>
      <point x="70.0" y="800.417910448"/>
      <point x="244.701492537" y="1079.0"/>
      <point x="385" y="1079" type="qcurve" smooth="yes"/>
      <point x="507.388059701" y="1079.0"/>
      <point x="638.388059701" y="913.149253731"/>
      <point x="666" y="793" type="qcurve"/>
      <point x="563" y="766" type="line"/>
      <point x="538.373134328" y="865.253731343"/>
      <point x="457.626865672" y="989.0"/>
      <point x="383" y="989" type="qcurve" smooth="yes"/>
      <point x="294.194029851" y="989.0"/>
      <point x="188.0" y="765.880597015"/>
      <point x="188" y="592" type="qcurve" smooth="yes"/>
      <point x="188" y="469" type="line" smooth="yes"/>
      <point x="188.0" y="292.880597015"/>
      <point x="298.223880597" y="70.0"/>
      <point x="393" y="70" type="qcurve" smooth="yes"/>
      <point x="457.179104478" y="70.0"/>
      <point x="550.611940299" y="186.76119403"/>
    </contour>
  </outline>
</glyph>
<glyph name="thorn" format="1">
  <advance width="833.536"/>
  <unicode hex="00FE"/>
  <outline>
    <contour>
      <point x="764" y="559" type="qcurve" smooth="yes"/>
      <point x="764" y="502" type="line" smooth="yes"/>
      <point x="764.0" y="251.253731343"/>
      <point x="595.447761194" y="-20.0"/>
      <point x="485" y="-20" type="qcurve" smooth="yes"/>
      <point x="407.388059701" y="-20.0"/>
      <point x="284.537313433" y="104.925373134"/>
      <point x="242" y="190" type="qcurve"/>
      <point x="231" y="190" type="line"/>
      <point x="231" y="-385" type="line"/>
      <point x="111" y="-385" type="line"/>
      <point x="111" y="1516" type="line"/>
      <point x="231" y="1559" type="line"/>
      <point x="231" y="858" type="line"/>
      <point x="242" y="858" type="line"/>
      <point x="287.52238806" y="949.791044776"/>
      <point x="407.671641791" y="1077.0"/>
      <point x="492" y="1077" type="qcurve" smooth="yes"/>
      <point x="603.194029851" y="1077.0"/>
      <point x="764.0" y="812.731343284"/>
    </contour>
    <contour>
      <point x="455" y="76" type="qcurve" smooth="yes"/>
      <point x="535.597014925" y="76.0"/>
      <point x="643.0" y="303.373134328"/>
      <point x="643" y="528" type="qcurve" smooth="yes"/>
      <point x="643.0" y="763.820895522"/>
      <point x="531.089552239" y="983.0"/>
      <point x="449" y="983" type="qcurve" smooth="yes"/>
      <point x="358.701492537" y="983.0"/>
      <point x="221.0" y="711.582089552"/>
      <point x="221" y="528" type="qcurve" smooth="yes"/>
      <point x="221.0" y="346.656716418"/>
      <point x="358.731343284" y="76.0"/>
    </contour>
  </outline>
</glyph>
<glyph name="Lslash" format="1">
  <advance width="851.968"/>
  <unicode hex="0141"/>
  <outline>
    <contour>
      <point x="834" y="104" type="line"/>
      <point x="834" y="0" type="line"/>
      <point x="184" y="0" type="line"/>
      <point x="184" y="672" type="line"/>
      <point x="45" y="588" type="line"/>
      <point x="45" y="702" type="line"/>
      <point x="184" y="786" type="line"/>
      <point x="184" y="1475" type="line"/>
      <point x="313" y="1475" type="line"/>
      <point x="313" y="856" type="line"/>
      <point x="547" y="993" type="line"/>
      <point x="547" y="879" type="line"/>
      <point x="313" y="741" type="line"/>
      <point x="313" y="104" type="line"/>
    </contour>
  </outline>
</glyph>
<glyph name="OE" format="1">
  <advance width="1454.08"/>
  <unicode hex="0152"/>
  <outline>
    <contour>
      <point x="1399" y="102" type="line"/>
      <point x="1399" y="0" type="line"/>
      <point x="582" y="0" type="line" smooth="yes"/>
      <point x="343.194029851" y="0.0"/>
      <point x="84.0" y="343.298507463"/>
      <point x="84" y="653" type="qcurve" smooth="yes"/>
      <point x="84" y="819" type="line" smooth="yes"/>
      <point x="84.0" y="1132.43283582"/>
      <point x="351.194029851" y="1475.0"/>
      <point x="590" y="1475" type="qcurve" smooth="yes"/>
      <point x="1378" y="1475" type="line"/>
      <point x="1378" y="1372" type="line"/>
      <point x="848" y="1372" type="line"/>
      <point x="848" y="821" type="line"/>
      <point x="1286" y="821" type="line"/>
      <point x="1286" y="721" type="line"/>
      <point x="848" y="721" type="line"/>
      <point x="848" y="102" type="line"/>
    </contour>
    <contour>
      <point x="590" y="96" type="qcurve" smooth="yes"/>
      <point x="721" y="96" type="line"/>
      <point x="721" y="1378" type="line"/>
      <point x="584" y="1378" type="line" smooth="yes"/>
      <point x="407.880597015" y="1378.0"/>
      <point x="211.0" y="1092.23880597"/>
      <point x="211" y="840" type="qcurve" smooth="yes"/>
      <point x="211" y="639" type="line" smooth="yes"/>
      <point x="211.0" y="383.776119403"/>
      <point x="406.417910448" y="96.0"/>
    </contour>
  </outline>
</glyph>
<glyph name="oe" format="1">
  <advance width="1294.336"/>
  <unicode hex="0153"/>
  <outline>
    <contour>
      <point x="1229" y="530" type="qcurve" smooth="yes"/>
      <point x="1229" y="506" type="line"/>
      <point x="723" y="506" type="line"/>
      <point x="723" y="467" type="line" smooth="yes"/>
      <point x="723.0" y="280.432835821"/>
      <point x="854.044776119" y="76.0"/>
      <point x="963" y="76" type="qcurve" smooth="yes"/>
      <point x="1023.44776119" y="76.0"/>
      <point x="1132.23880597" y="135.014925373"/>
      <point x="1180" y="188" type="qcurve"/>
      <point x="1225" y="113" type="line"/>
      <point x="1171.26865672" y="54.7910447761"/>
      <point x="1034.32835821" y="-20.0"/>
      <point x="950" y="-20" type="qcurve" smooth="yes"/>
      <point x="847.76119403" y="-20.0"/>
      <point x="707.104477612" y="123.134328358"/>
      <point x="678" y="250" type="qcurve"/>
      <point x="664" y="250" type="line"/>
      <point x="633.402985075" y="130.597014925"/>
      <point x="497.746268657" y="-20.0"/>
      <point x="397" y="-20" type="qcurve" smooth="yes"/>
      <point x="246.253731343" y="-20.0"/>
      <point x="70.0" y="268.104477612"/>
      <point x="70" y="489" type="qcurve" smooth="yes"/>
      <point x="70" y="569" type="line" smooth="yes"/>
      <point x="70.0" y="790.641791045"/>
      <point x="248.253731343" y="1079.0"/>
      <point x="399" y="1079" type="qcurve" smooth="yes"/>
      <point x="498.253731343" y="1079.0"/>
      <point x="636.388059701" y="925.895522388"/>
      <point x="664" y="805" type="qcurve"/>
      <point x="676" y="805" type="line"/>
      <point x="703.611940299" y="927.388059701"/>
      <point x="836.71641791" y="1079.0"/>
      <point x="930" y="1079" type="qcurve" smooth="yes"/>
      <point x="1068.80597015" y="1079.0"/>
      <point x="1229.0" y="777.76119403"/>
    </contour>
    <contour>
      <point x="401" y="66" type="qcurve" smooth="yes"/>
      <point x="497.268656716" y="66.0"/>
      <point x="614.0" y="293.895522388"/>
      <point x="614" y="473" type="qcurve" smooth="yes"/>
      <point x="614" y="586" type="line" smooth="yes"/>
      <point x="614.0" y="762.865671642"/>
      <point x="493.268656716" y="993.0"/>
      <point x="397" y="993" type="qcurve" smooth="yes"/>
      <point x="300.731343284" y="993.0"/>
      <point x="188.0" y="762.865671642"/>
      <point x="188" y="586" type="qcurve" smooth="yes"/>
      <point x="188" y="473" type="line" smooth="yes"/>
      <point x="188.0" y="293.895522388"/>
      <point x="304.731343284" y="66.0"/>
    </contour>
    <contour>
      <point x="723" y="580" type="line"/>
      <point x="1114" y="580" type="line"/>
      <point x="1111.01492537" y="759.850746269"/>
      <point x="1010.08955224" y="995.0"/>
      <point x="928" y="995" type="qcurve" smooth="yes"/>
      <point x="831.731343284" y="995.0"/>
      <point x="723.0" y="767.343283582"/>
      <point x="723" y="586" type="qcurve" smooth="yes"/>
    </contour>
  </outline>
</glyph>
<glyph name="florin" format="1">
  <advance width="718.848"/>
  <unicode hex="0192"/>
  <outline>
    <contour>
      <point x="561" y="1487" type="qcurve" smooth="yes"/>
      <point x="605.776119403" y="1487.0"/>
      <point x="676.402985075" y="1472.68656716"/>
      <point x="707" y="1460" type="qcurve"/>
      <point x="698" y="1362" type="line"/>
      <point x="665.910447761" y="1376.92537313"/>
      <point x="608.820895522" y="1389.0"/>
      <point x="573" y="1389" type="qcurve" smooth="yes"/>
      <point x="517.029850746" y="1389.0"/>
      <point x="439.940298507" y="1309.56716418"/>
      <point x="428" y="1223" type="qcurve" smooth="yes"/>
      <point x="387" y="936" type="line"/>
      <point x="596" y="936" type="line"/>
      <point x="582" y="840" type="line"/>
      <point x="375" y="840" type="line"/>
      <point x="236" y="-170" type="line" smooth="yes"/>
      <point x="218.835820896" y="-295.373134328"/>
      <point x="97.8507462687" y="-389.0"/>
      <point x="18" y="-389" type="qcurve" smooth="yes"/>
      <point x="-14.0895522388" y="-389.0"/>
      <point x="-77.1044776119" y="-376.462686567"/>
      <point x="-98" y="-369" type="qcurve"/>
      <point x="-86" y="-272" type="line"/>
      <point x="-64.3582089552" y="-280.208955224"/>
      <point x="-14.1194029851" y="-291.0"/>
      <point x="12" y="-291" type="qcurve" smooth="yes"/>
      <point x="52.2985074627" y="-291.0"/>
      <point x="105.805970149" y="-229.134328358"/>
      <point x="117" y="-156" type="qcurve" smooth="yes"/>
      <point x="256" y="840" type="line"/>
      <point x="88" y="840" type="line"/>
      <point x="102" y="936" type="line"/>
      <point x="268" y="936" type="line"/>
      <point x="309" y="1229" type="line" smooth="yes"/>
      <point x="329.149253731" y="1369.29850746"/>
      <point x="463.23880597" y="1487.0"/>
    </contour>
  </outline>
</glyph>
<glyph name="caron" format="1">
  <advance width="802.816"/>
  <unicode hex="02C7"/>
  <outline>
    <contour>
      <point x="571" y="1440" type="line"/>
      <point x="633" y="1440" type="line"/>
      <point x="455" y="1184" type="line"/>
      <point x="348" y="1184" type="line"/>
      <point x="170" y="1440" type="line"/>
      <point x="233" y="1440" type="line"/>
      <point x="401" y="1270" type="line"/>
    </contour>
  </outline>
</glyph>
<glyph name="breve" format="1">
  <advance width="802.816"/>
  <unicode hex="02D8"/>
  <outline>
    <contour>
      <point x="565" y="1438" type="qcurve"/>
      <point x="625" y="1438" type="line"/>
      <point x="618.28358209" y="1317.10447761"/>
      <point x="505.47761194" y="1178.0"/>
      <point x="401" y="1178" type="qcurve" smooth="yes"/>
      <point x="298.76119403" y="1178.0"/>
      <point x="183.970149254" y="1317.10447761"/>
      <point x="178" y="1438" type="qcurve"/>
      <point x="240" y="1438" type="line"/>
      <point x="250.447761194" y="1352.17910448"/>
      <point x="333.835820896" y="1270.0"/>
      <point x="401" y="1270" type="qcurve" smooth="yes"/>
      <point x="466.671641791" y="1270.0"/>
      <point x="553.059701493" y="1352.17910448"/>
    </contour>
  </outline>
</glyph>
<glyph name="ring" format="1">
  <advance width="802.816"/>
  <unicode hex="02DA"/>
  <outline>
    <contour>
      <point x="401" y="1458" type="qcurve" smooth="yes"/>
      <point x="463.686567164" y="1458.0"/>
      <point x="551.0" y="1374.19402985"/>
      <point x="551" y="1313" type="qcurve" smooth="yes"/>
      <point x="551.0" y="1253.29850746"/>
      <point x="463.686567164" y="1169.0"/>
      <point x="401" y="1169" type="qcurve" smooth="yes"/>
      <point x="336.820895522" y="1169.0"/>
      <point x="252.0" y="1253.29850746"/>
      <point x="252" y="1313" type="qcurve" smooth="yes"/>
      <point x="252.0" y="1374.19402985"/>
      <point x="336.820895522" y="1458.0"/>
    </contour>
    <contour>
      <point x="401" y="1219" type="qcurve" smooth="yes"/>
      <point x="439.805970149" y="1219.0"/>
      <point x="489.0" y="1276.94029851"/>
      <point x="489" y="1315" type="qcurve" smooth="yes"/>
      <point x="489.0" y="1353.05970149"/>
      <point x="439.805970149" y="1407.0"/>
      <point x="401" y="1407" type="qcurve" smooth="yes"/>
      <point x="362.940298507" y="1407.0"/>
      <point x="313.0" y="1353.05970149"/>
      <point x="313" y="1315" type="qcurve" smooth="yes"/>
      <point x="313.0" y="1276.94029851"/>
      <point x="362.940298507" y="1219.0"/>
    </contour>
  </outline>
</glyph>
<glyph name="hungarumlaut" format="1">
  <advance width="802.816"/>
  <unicode hex="02DD"/>
  <outline>
    <contour>
      <point x="264" y="1432" type="line"/>
      <point x="414" y="1432" type="line"/>
      <point x="190" y="1184" type="line"/>
      <point x="119" y="1184" type="line"/>
    </contour>
    <contour>
      <point x="545" y="1432" type="line"/>
      <point x="692" y="1432" type="line"/>
      <point x="471" y="1184" type="line"/>
      <point x="399" y="1184" type="line"/>
    </contour>
  </outline>
</glyph>
<glyph name="endash" format="1">
  <advance width="806.912"/>
  <unicode hex="2013"/>
  <outline>
    <contour>
      <point x="748" y="627" type="line"/>
      <point x="748" y="522" type="line"/>
      <point x="61" y="522" type="line"/>
      <point x="61" y="627" type="line"/>
    </contour>
  </outline>
</glyph>
<glyph name="emdash" format="1">
  <advance width="1617.92"/>
  <unicode hex="2014"/>
  <outline>
    <contour>
      <point x="1556" y="627" type="line"/>
      <point x="1556" y="522" type="line"/>
      <point x="61" y="522" type="line"/>
      <point x="61" y="627" type="line"/>
    </contour>
  </outline>
</glyph>
<glyph name="quoteleft" format="1">
  <advance width="301.056"/>
  <unicode hex="2018"/>
  <unicode hex="02BB"/>
  <outline>
    <contour>
      <point x="184" y="1475" type="line"/>
      <point x="250" y="1065" type="line"/>
      <point x="193" y="1065" type="line"/>
      <point x="55" y="1475" type="line"/>
    </contour>
  </outline>
</glyph>
<glyph name="quoteright" format="1">
  <advance width="319.488"/>
  <unicode hex="2019"/>
  <unicode hex="02BC"/>
  <outline>
    <contour>
      <point x="133" y="1475" type="line"/>
      <point x="264" y="1475" type="line"/>
      <point x="127" y="1065" type="line"/>
      <point x="70" y="1065" type="line"/>
    </contour>
  </outline>
</glyph>
<glyph name="quotedblleft" format="1">
  <advance width="573.44"/>
  <unicode hex="201C"/>
  <outline>
    <contour>
      <point x="184" y="1475" type="line"/>
      <point x="248" y="1065" type="line"/>
      <point x="193" y="1065" type="line"/>
      <point x="55" y="1475" type="line"/>
    </contour>
    <contour>
      <point x="440" y="1475" type="line"/>
      <point x="504" y="1065" type="line"/>
      <point x="451" y="1065" type="line"/>
      <point x="311" y="1475" type="line"/>
    </contour>
  </outline>
</glyph>
<glyph name="quotedblright" format="1">
  <advance width="573.44"/>
  <unicode hex="201D"/>
  <outline>
    <contour>
      <point x="133" y="1475" type="line"/>
      <point x="262" y="1475" type="line"/>
      <point x="125" y="1065" type="line"/>
      <point x="70" y="1065" type="line"/>
    </contour>
    <contour>
      <point x="391" y="1475" type="line"/>
      <point x="520" y="1475" type="line"/>
      <point x="381" y="1065" type="line"/>
      <point x="328" y="1065" type="line"/>
    </contour>
  </outline>
</glyph>
<glyph name="dagger" format="1">
  <advance width="700.416"/>
  <unicode hex="2020"/>
  <outline>
    <contour>
      <point x="649" y="1067" type="line"/>
      <point x="649" y="958" type="line"/>
      <point x="383" y="987" type="line"/>
      <point x="414" y="707" type="line"/>
      <point x="375" y="0" type="line"/>
      <point x="326" y="0" type="line"/>
      <point x="287" y="707" type="line"/>
      <point x="317" y="987" type="line"/>
      <point x="51" y="958" type="line"/>
      <point x="51" y="1067" type="line"/>
      <point x="317" y="1036" type="line"/>
      <point x="287" y="1475" type="line"/>
      <point x="414" y="1475" type="line"/>
      <point x="383" y="1036" type="line"/>
    </contour>
  </outline>
</glyph>
<glyph name="ellipsis" format="1">
  <advance width="999.424"/>
  <unicode hex="2026"/>
  <outline>
    <contour>
      <point x="158" y="156" type="qcurve" smooth="yes"/>
      <point x="194.567164179" y="156.0"/>
      <point x="242.0" y="106.567164179"/>
      <point x="242" y="70" type="qcurve" smooth="yes"/>
      <point x="242.0" y="32.6865671642"/>
      <point x="194.567164179" y="-14.0"/>
      <point x="158" y="-14" type="qcurve" smooth="yes"/>
      <point x="121.432835821" y="-14.0"/>
      <point x="74.0" y="32.6865671642"/>
      <point x="74" y="70" type="qcurve" smooth="yes"/>
      <point x="74.0" y="106.567164179"/>
      <point x="121.432835821" y="156.0"/>
    </contour>
    <contour>
      <point x="500" y="156" type="qcurve" smooth="yes"/>
      <point x="536.567164179" y="156.0"/>
      <point x="584.0" y="106.567164179"/>
      <point x="584" y="70" type="qcurve" smooth="yes"/>
      <point x="584.0" y="32.6865671642"/>
      <point x="536.567164179" y="-14.0"/>
      <point x="500" y="-14" type="qcurve" smooth="yes"/>
      <point x="463.432835821" y="-14.0"/>
      <point x="416.0" y="32.6865671642"/>
      <point x="416" y="70" type="qcurve" smooth="yes"/>
      <point x="416.0" y="106.567164179"/>
      <point x="463.432835821" y="156.0"/>
    </contour>
    <contour>
      <point x="842" y="156" type="qcurve" smooth="yes"/>
      <point x="878.567164179" y="156.0"/>
      <point x="926.0" y="106.567164179"/>
      <point x="926" y="70" type="qcurve" smooth="yes"/>
      <point x="926.0" y="32.6865671642"/>
      <point x="878.567164179" y="-14.0"/>
      <point x="842" y="-14" type="qcurve" smooth="yes"/>
      <point x="803.940298507" y="-14.0"/>
      <point x="756.0" y="32.6865671642"/>
      <point x="756" y="70" type="qcurve" smooth="yes"/>
      <point x="756.0" y="106.567164179"/>
      <point x="803.940298507" y="156.0"/>
    </contour>
  </outline>
</glyph>
<glyph name="fraction" format="1">
  <advance width="600.064"/>
  <unicode hex="2044"/>
  <outline>
    <contour>
      <point x="557" y="1505" type="line"/>
      <point x="664" y="1505" type="line"/>
      <point x="45" y="-31" type="line"/>
      <point x="-61" y="-31" type="line"/>
    </contour>
  </outline>
</glyph>
<glyph name="trademark" format="1">
  <advance width="1077.248"/>
  <unicode hex="2122"/>
  <outline>
    <contour>
      <point x="1001" y="1475" type="line"/>
      <point x="1001" y="926" type="line"/>
      <point x="926" y="926" type="line"/>
      <point x="926" y="1380" type="line"/>
      <point x="922" y="1380" type="line"/>
      <point x="793" y="926" type="line"/>
      <point x="707" y="926" type="line"/>
      <point x="578" y="1380" type="line"/>
      <point x="573" y="1380" type="line"/>
      <point x="573" y="926" type="line"/>
      <point x="502" y="926" type="line"/>
      <point x="502" y="1475" type="line"/>
      <point x="627" y="1475" type="line"/>
      <point x="752" y="1024" type="line"/>
      <point x="756" y="1024" type="line"/>
      <point x="881" y="1475" type="line"/>
    </contour>
    <contour>
      <point x="414" y="1475" type="line"/>
      <point x="414" y="1407" type="line"/>
      <point x="268" y="1407" type="line"/>
      <point x="268" y="926" type="line"/>
      <point x="188" y="926" type="line"/>
      <point x="188" y="1407" type="line"/>
      <point x="43" y="1407" type="line"/>
      <point x="43" y="1475" type="line"/>
    </contour>
  </outline>
</glyph>
<glyph name="fl" format="1">
  <advance width="884.736"/>
  <unicode hex="FB02"/>
  <outline>
    <contour>
      <point x="543" y="1532" type="qcurve"/>
      <point x="543" y="1432" type="line"/>
      <point x="516.880597015" y="1446.92537313"/>
      <point x="464.567164179" y="1464.0"/>
      <point x="428" y="1464" type="qcurve" smooth="yes"/>
      <point x="374.268656716" y="1464.0"/>
      <point x="307.0" y="1391.08955224"/>
      <point x="307" y="1309" type="qcurve" smooth="yes"/>
      <point x="307" y="1049" type="line"/>
      <point x="504" y="1049" type="line"/>
      <point x="504" y="961" type="line"/>
      <point x="307" y="961" type="line"/>
      <point x="307" y="0" type="line"/>
      <point x="188" y="0" type="line"/>
      <point x="188" y="961" type="line"/>
      <point x="23" y="961" type="line"/>
      <point x="23" y="1049" type="line"/>
      <point x="188" y="1049" type="line"/>
      <point x="188" y="1313" type="line" smooth="yes"/>
      <point x="188.0" y="1435.3880597"/>
      <point x="306.731343284" y="1554.0"/>
      <point x="403" y="1554" type="qcurve" smooth="yes"/>
      <point x="453.746268657" y="1554.0"/>
      <point x="515.388059701" y="1542.44776119"/>
    </contour>
    <contour>
      <point x="760" y="1559" type="line"/>
      <point x="760" y="0" type="line"/>
      <point x="639" y="0" type="line"/>
      <point x="639" y="1516" type="line"/>
    </contour>
  </outline>
</glyph>
<glyph name="bullet" format="1">
  <advance width="591.872"/>
  <outline>
    <contour>
      <point x="297" y="965" type="qcurve" smooth="yes"/>
      <point x="381.328358209" y="965.0"/>
      <point x="498.0" y="848.328358209"/>
      <point x="498" y="764" type="qcurve" smooth="yes"/>
      <point x="498.0" y="679.671641791"/>
      <point x="381.328358209" y="563.0"/>
      <point x="297" y="563" type="qcurve" smooth="yes"/>
      <point x="212.671641791" y="563.0"/>
      <point x="94.0" y="679.671641791"/>
      <point x="94" y="764" type="qcurve" smooth="yes"/>
      <point x="94.0" y="848.328358209"/>
      <point x="212.671641791" y="965.0"/>
    </contour>
  </outline>
</glyph>
<glyph name="macron" format="1">
  <advance width="802.816"/>
  <outline>
    <contour>
      <point x="627" y="1352" type="line"/>
      <point x="627" y="1262" type="line"/>
      <point x="176" y="1262" type="line"/>
      <point x="176" y="1352" type="line"/>
    </contour>
  </outline>
</glyph>
<glyph name="registered" format="1">
  <advance width="706.56"/>
  <outline>
    <contour>
      <point x="406" y="1155" type="qcurve"/>
      <point x="502" y="1001" type="line"/>
      <point x="428" y="1001" type="line"/>
      <point x="338" y="1149" type="line"/>
      <point x="307" y="1149" type="line"/>
      <point x="307" y="1001" type="line"/>
      <point x="248" y="1001" type="line"/>
      <point x="248" y="1358" type="line"/>
      <point x="356" y="1358" type="line" smooth="yes"/>
      <point x="411.223880597" y="1358.0"/>
      <point x="479.0" y="1305.74626866"/>
      <point x="479" y="1255" type="qcurve" smooth="yes"/>
      <point x="479.0" y="1215.44776119"/>
      <point x="439.582089552" y="1165.44776119"/>
    </contour>
    <contour>
      <point x="354" y="1489" type="qcurve" smooth="yes"/>
      <point x="480.865671642" y="1489.0"/>
      <point x="653.0" y="1306.8358209"/>
      <point x="653" y="1174" type="qcurve" smooth="yes"/>
      <point x="653.0" y="1040.41791045"/>
      <point x="480.358208955" y="858.0"/>
      <point x="352" y="858" type="qcurve" smooth="yes"/>
      <point x="225.134328358" y="858.0"/>
      <point x="53.0" y="1039.65671642"/>
      <point x="53" y="1171" type="qcurve" smooth="yes"/>
      <point x="53.0" y="1306.07462687"/>
      <point x="225.641791045" y="1489.0"/>
    </contour>
    <contour>
      <point x="354" y="893" type="qcurve" smooth="yes"/>
      <point x="467.432835821" y="893.0"/>
      <point x="616.0" y="1055.32835821"/>
      <point x="616" y="1171" type="qcurve" smooth="yes"/>
      <point x="616.0" y="1290.40298507"/>
      <point x="465.432835821" y="1454.0"/>
      <point x="352" y="1454" type="qcurve" smooth="yes"/>
      <point x="237.820895522" y="1454.0"/>
      <point x="90.0" y="1291.1641791"/>
      <point x="90" y="1174" type="qcurve" smooth="yes"/>
      <point x="90.0" y="1056.08955224"/>
      <point x="239.820895522" y="893.0"/>
    </contour>
    <contour>
      <point x="354" y="1194" type="line" smooth="yes"/>
      <point x="384.597014925" y="1194.0"/>
      <point x="418.0" y="1226.13432836"/>
      <point x="418" y="1253" type="qcurve" smooth="yes"/>
      <point x="418.0" y="1279.11940299"/>
      <point x="384.089552239" y="1307.0"/>
      <point x="352" y="1307" type="qcurve" smooth="yes"/>
      <point x="307" y="1307" type="line"/>
      <point x="307" y="1194" type="line"/>
    </contour>
  </outline>
</glyph>
